<mxfile host="app.diagrams.net" modified="2021-09-20T13:58:37.701Z" agent="5.0 (Windows NT 10.0; Win64; x64) AppleWebKit/537.36 (KHTML, like Gecko) Chrome/93.0.4577.82 Safari/537.36" etag="Xe2CQn6ZGdNbpBhufxbP" version="15.2.9" type="github">
  <diagram id="gc8vco0-nX_CbUO1lKb9" name="Page-1">
    <mxGraphModel dx="3076" dy="-407" grid="1" gridSize="10" guides="1" tooltips="1" connect="1" arrows="1" fold="1" page="1" pageScale="1" pageWidth="827" pageHeight="1169" math="0" shadow="0">
      <root>
        <mxCell id="0" />
        <mxCell id="1" parent="0" />
        <mxCell id="Prj4pvKru22-2I4ndVTB-34" value="Crown Hosting" style="rounded=1;whiteSpace=wrap;html=1;verticalAlign=top;dashed=1;" vertex="1" parent="1">
          <mxGeometry x="-1650" y="1320" width="200" height="230" as="geometry" />
        </mxCell>
        <mxCell id="Prj4pvKru22-2I4ndVTB-33" value="Azure" style="rounded=1;whiteSpace=wrap;html=1;verticalAlign=top;dashed=1;" vertex="1" parent="1">
          <mxGeometry x="-1450" y="1370" width="360" height="120" as="geometry" />
        </mxCell>
        <mxCell id="Prj4pvKru22-2I4ndVTB-16" style="edgeStyle=orthogonalEdgeStyle;rounded=0;orthogonalLoop=1;jettySize=auto;html=1;entryX=1;entryY=0.5;entryDx=0;entryDy=0;" edge="1" parent="1" source="Prj4pvKru22-2I4ndVTB-19" target="Prj4pvKru22-2I4ndVTB-21">
          <mxGeometry relative="1" as="geometry" />
        </mxCell>
        <mxCell id="Prj4pvKru22-2I4ndVTB-18" style="edgeStyle=orthogonalEdgeStyle;rounded=0;orthogonalLoop=1;jettySize=auto;html=1;entryX=1;entryY=0.5;entryDx=0;entryDy=0;startArrow=none;startFill=0;exitX=0;exitY=0.25;exitDx=0;exitDy=0;" edge="1" parent="1" source="Prj4pvKru22-2I4ndVTB-19" target="Prj4pvKru22-2I4ndVTB-28">
          <mxGeometry relative="1" as="geometry">
            <Array as="points">
              <mxPoint x="-1434" y="1445" />
              <mxPoint x="-1464" y="1445" />
              <mxPoint x="-1464" y="1503" />
            </Array>
          </mxGeometry>
        </mxCell>
        <mxCell id="Prj4pvKru22-2I4ndVTB-19" value="Azure API Management" style="rounded=1;whiteSpace=wrap;html=1;verticalAlign=top;" vertex="1" parent="1">
          <mxGeometry x="-1434" y="1410" width="140" height="70" as="geometry" />
        </mxCell>
        <mxCell id="Prj4pvKru22-2I4ndVTB-20" value="" style="aspect=fixed;html=1;points=[];align=center;image;fontSize=12;image=img/lib/mscae/API_Management.svg;" vertex="1" parent="1">
          <mxGeometry x="-1379" y="1442.4" width="30" height="25.2" as="geometry" />
        </mxCell>
        <mxCell id="Prj4pvKru22-2I4ndVTB-21" value="Rural Payments Service" style="rounded=1;whiteSpace=wrap;html=1;verticalAlign=top;" vertex="1" parent="1">
          <mxGeometry x="-1634" y="1350" width="140" height="70" as="geometry" />
        </mxCell>
        <mxCell id="Prj4pvKru22-2I4ndVTB-22" value="" style="shape=image;verticalLabelPosition=bottom;labelBackgroundColor=#ffffff;verticalAlign=top;aspect=fixed;imageAspect=0;image=data:image/png,iVBORw0KGgoAAAANSUhEUgAAAMgAAADICAYAAACtWK6eAAAgAElEQVR4Ae2dCbhN1RfAXzLPM5EyZarMNEgyRINkyphUIiSS0mBKSYMxKjIlRIiUisiYWWVMiYRCJBVlfm/9v986rfuO673rDRd1/3t/373n3nP2uM5aew1777WixCUHAQeBOCEQExMjUXE+cTcdBBwExBGIQwIHgRAQcAQSAjjukYOAIxCHAw4CISDgCCQEcNwjBwFHIA4HHARCQMARSAjguEcOAo5AHA44CISAgCOQEMBxjxwEHIE4HHAQCAEBRyAhgOMeOQg4AnE44CAQAgKOQEIAxz1yEHAE4nDAQSAEBByBhACOe+Qg4AjE4YCDQAgIOAIJARz3yEHAEYjDAQeBEBBwBBICOO6Rg4AjEIcDDgIhIOAIJARw3CMHAUcgDgccBEJAwBFICOC4Rw4CjkAcDjgIhICAI5AQwHGPHAQcgTgccBAIAQFHICGA4x45CDgCcTjgIBACAo5AQgDHPXIQcATicMBBIAQEHIGEAI575CDgCMThgINACAg4AgkBHPfIQcARiMMBB4EQEHAEEgI47pGDgCMQhwMOAiEg4AgkBHDcIwcBRyAOBxwEQkDAEUgI4LhHDgKOQBwOOAiEgIAjkBDAcY8cBByBOBxwEAgBAUcgIYDjHjkIOAJxOOAgEAICjkBCAMc9chBwBOJwwEEgBAQCBBITIpN75CDw/woBJZCT0afkWPQpORl9WmKiY0TscxGgEh0dLadOnRKufFxyELiYEFACOXH6dKAPcJLomGiPSGIuHl+BSOhcqHSu56HKumcOAgmBgBLI0ZPHZc2hTbLs4Dr57fgRAS2Vk5wDQUM1YMhr11B5/c/+/vtv2bFjh9467SNcfx7/78TW7y/rfjsInAsCSiB7jh2QfLMbS9SU0jJp1+da5mTMyXOVjfM5SB2M2OcSl+iEiVMjRoyQu+++W5YvX6712/3gxv766y85ePCg3vaLZI5ggiHl/icHAkoge48dlCs/ay5R08rL+F1ztb4TMSeUkyS2chAahN25c6f89ttv8t1338nJkyfPIhrqNcKAoMhD+vTTT6Vt27by7bff6n8jOD+hGBHMnDlTvv/+e81Hee7bM73pvhwEkgkB8CkKArlibjMlkHd2faZVJpVAKMzs37hxY3n//ffls88+k2XLPG4QzFni6vt7770ngwcPliVLlpz12JDfrseOHZPevXvLli1bvD6fOBHgRGcVdjccBJIAgSACKSdJJRBD2gULFsiUKVPk3XfflTlzPpVBgwbK7NkfBbrmV75BcAho1KhRMnnyZNm6dauMGvWWtG//sMya9YGsXbtGZsyYIaNHjz5D5KItI7Z9+/ZJixYtZNu2bYE24DZxcZxABvfDQSCBEAgbgRhCzps3TzwuMES6dOksLVs2l8GDB8rHH8+WlStXarcMgYcNGybTp09Xcerzzz8X9I+nnuouL7/cX5544nGZMmWybNiwQdavX69cZdasWVoeIiMZkaxevVqqVq2q4tbmzZsDxGH5GKQRsBZ0Xw4CCYRA2AjEEPDEiRPKEdq3by/t27eT2rVrSblypSVTpgzSpk2bQLdWrFghI0eODPy3H599Nkdef32YbN3q6SB2H27Tv39/+fPPP/WWtXf8+HH9D6FVrlxZypcvLxMnTpSTJ88kIqvHXR0EEgOBsBEIjRoXmTz5XbnhhuvlqquKSO7cOWXo0MFSq1ZNKVKksCxY4FnJ4DKIVyQsUijcpBUrlskLL/SVv/8+Ir/+ekAWLVqo9/kaM2ZMQHmnLeMgMTHRMm7cWClZsoTkypVTrrzyCqlUqWKgrBkAAhW5Hw4CCYRA2AjEiAPxKE2aVNK6dSvp06eXlCxZXLp0eVSKF79KsmXLIl27dtGuIToNHDhQ4Di7du2SevXqqbL99ttj5aabbpRVq1bImDGjpEOHhzX/xo0bZMCAAQInodMmPmEtq1+/njRq1EDq179L8uTJKZdfnk/bqlixgmzfvl3LOyJJIEa4bGdAIOwEsmLFcsmf/zIljHr16sq6dV/JgAGvSNasWaRgwSukUKEr5a23PNEK5fupp55S027Xrl3V6jVu3Bih3Nixo6Vnz2elW7euMn/+Z/LIIx1l7dovtfMmVu3evVsqVKggxYoVlbx5c6sYd8UVl0vdunfIlVcWkCxZMkvdunXlyJEjWo7BuuQgkBgIhI1ATNxZsmSxlClzrRJJvnx5pUkTzL3TpFSpEnqvQIF88txzvbWPcI+HHnpIhgwZInXq1JFWre5V4ihQIL9yoJo1q0uLFs2kV68e0q/fC4Eyxg1YZ3n99dflhhuuk/vvv082blwvEye+I3feebuKdvnyXSY33HCD/PHH71rWEUhiUMPlBQJhJxBme2ZwRCv0j0qVKqg+cd9996rYU6RIIbnvvlayd+9efQNwkRQpouT66yvLXXfdKc2aNZEHH7xfGjduKHfccZtcfXVJyZ07h/zwgycqwT0gRiMSKunb9znZtGmDzJz5vtx44/WSK1cO5SBwFUS7gwf3a1uOQBQM7isREEg2gYCsxj1o99Chg0ogWK/gIIg8KOtcEXtA3ubNm6nuQf5JkybJ4sUL5dixv2XZsqUyffpU5TizZ38omzdvlOjoUzJ58iRZv35dYFiG6KyB7Nnzs4pxjz/+mDz00IOSIUM6bYu20UVKl75Gtm3bqmWtXKAi98NB4BwQSDKBUNCPcCbnnzx5Qvr27aPcgBkcokAnQWyCSEDcokULK2LTN9Y/+vTpLc8//5w8/XR3Xf9o27aNdOrUUa699mr9/+qrL8vBgwdUMWc9BUWd9MYbr6uINXXqe7J06WIlLJR6uFeJEsUkc+aM8swzTynxnT596gxCPgdc3GMHAYVAkgiEQugPpNmzZ0vPnj3kySe7yVNPPSkHDuwXlOdu3bpJ2bJlJF++PEokEAdEAsHkzJld9ZC9e3+W996brAT0wAOtZcaM6fLuuxPVegWRVa1aRebNmysvvviCTJv2nkyaNEHrwGI1Y8b7ShQjR74phQsXVGWeNZTly79QjtO58yNSqFAh+eSTT8541bZIecZN98dBIB4IJIlATKRat26d5MmTWy65JEoRecmSRTJy5AhtilVv1iMQc4w44CT8zp49q7Rr95A8++zTAnfo3LmTEs5rrw2RUaNGSo8ez6i4hD4C4Y0fP06JBeIRiZHbb68jzZs3lblzP5U2bR5QsYo60WOob+XK5fLSSy+qVezXX3+V4cOHy9ChQ2Xt2rWqu/g5XzxwcbcdBBQCySKQV199VWfpPHlyyY4d22XWrJm6D4uaX3zxRcmYMb2adeEcEAdiz2WX5VFkf/PN11WkwqLVsGF9GT36LeUea9askoEDX9XVdPQRCARCYl0ES9iWLZtlw4Z1qnxjMsZ0TP38Rr/hU716NRW3PHGvr8yfP185WlRUlFrM6J8RucMDB4FQEEg0gdiCIJsD2bF7yy236Ir1L7/s060kf/11WEBMkJRVbTgGHwiE9QqIgZVyxDHEJnQGCGHYsKHSoMHdurjIAiOiV//+/TQfegT6yVtvjVALV506t0q5cohveQMEQhuIbxDrbbfVlmPH/pKfftotPXr00PE/8cQTkipVKjUrM2jGwZWPSw4C8UEgUQRiyIRC3qtXL3nnnXcUwTgF2Lp1a9m0aZO2A3JnzZo5gLwgMrM8Zt+yZUvL8OGvKYdg1Z2NjCwOso7Rr9/zqqyjf0AUiFIdO7ZXnQSiYUWetZEPPpghc+Z8opwFC5npNnARFHMWGElHjhzWftJvVusbNGigK/Z2hsS/szg+ALn7/98QSBKB7N+/XxEO0LGPisW+L7/0Vrn3798nlStX1JVtENfEH9Y/ELHSp08r5cuXlc8/n6fWLhRrxKzevXsqYr/yykvKYT788APhN+sncBp0CnSMRYsW6CIi+sjMmdOVgNgImSNHNuUg6Dy09c03m+Tw4T91QyS7hkkQxJw5bIZ8Xf744w+950QtBYP7igcCiSIQ6jAuYr+ffvppWbx4caD6Rx99RGdxLEvoGxUqlJOvv/5S9u3bowt5LAJyH0vUww+3FQiEvVQo1927P6GcBcJAn8Gqxd4sLFXsy6IM+sgjj3SQMmXKyLPPepxi2LDX5JZbblYOhaiFeZn9XGPGjNZNkBzAYrXeEouNcD2Sfzz23F0dBAwCiSYQCtqsO3fuXLUQWWVLly6Va64pFdA7IATEq7vvvku2b/eOxrIYiGKNCXfQoAEqbrHIBxGgmyB2QQDoHBAK6yOIXli6WGlnMRBimjp1qopPcDBLiGso6YUKFdRV+5tvvlk4K0KCi7zxxhv62/QoK+euDgLxQSBZBPLmm28GTvIdOnRI7rvvPqlRo7rO4CjMKOoQA9Ys9mf98cchefPN4aqfIAYhJmHCxbw7deoUVcqxZkEQEArcgjUQCAmRi60ncJXBgwedMR7WR1D2MQubVcszDhQ4Yx0EbscZeZLjHGeA0P2JBwJJIhBDrpdeeklPAXJuo0OHDvLcc31U/gc5WZdAmWYBkIXBzJkzydKlS2T37l3KASAA1jzYyAjio4Rj+sXEC8IjisFJ4Bwo7SjlnCvBAMAKuqXp06cpAWIUgBDRecySxRmR2267TfUk8nMc+IsvvtCijosYBN01FASSTCCIWThlaNKkiWTJkkmGDBmku25BUvQP7n311VoVk1KmTCE9ejwbOMPBzlxODaJ4s88KxGeTI+IU9zD7osvY1hM2Ib7zztsqjqHQz5w5IzCmZ555Rre5Y8FCD2FzI23DSW67rY6ebnzllVfk6NGjqrNwkpHkCCQAQvcjBASSTCB2YImTgSjSItGBbebM4OziZcMhliuUcZLtoYKwQHSIirUORC3qgGMgXvGfM+lwGUy2n3wyW1fM165drXm++sqzmFHnwoULVDnn7DuJncRdu3bWNZWbb66q96pXry633nqrioBOxFKQuK8EQiBJBELdzMBGJPz/7bdfdXMhpwYhkGXLvlALVZo0qaVGjVvkt988J2/kPXHiuNxzTyP59NOPlWsgUrFthAU+RC0sWGxF4SwIJl70kAkTxqsugl4SnDp27CD16t2lt+E+TZrcI6VLXxs4Q4ILIcRBS/6t8nbPXR0E4oJAkgnELFkHDhzQNQe4BEdtq1WrJosXez6tMKXWr19f8ue/XG688Qbdvo4zhoULP1cuwdoH+64gBIgCBZ0TiFi0FiyYLx99NEs5BgSE7sGioVnD2GOFhapPnz5SufJ10rlzZxWjGCTbXHLkyCHlypXT04pm0v3555/lp59+UjgwcJccBM4FgSQTiM3CyPSYVtknhaXp+HFvKzriFByGU399+/aVyy7zVtNR2NFTOPkHN+CAE0TBNhTEJPZcodhj1YIg2D/FOXa4CKIXeg0nBmvUqClly5ZVvcK8MDJYXAuxwk+/MOvmz59fvTyyMIhLIj7maM4RybnQwz1PEoFQyAjkscceUyTG+kQ6deqkzuR+EQxXPTt3/qhWKvZgwQ1iYk7LkSN/KtKzUHjppZeoUs5aB9tJ0E9YOGQNhRV0rF3kh3iaNm0icBBzAUS7tv2eFf2xY8cqUcA5rr/+et2siEtTtr5DIOxCJjlFXcHgvkJAIMkEYiIWjqbROXCu4E9UDAfBemTpzz9/V2sVCjriFK59fvzxB0XoDh3ay8MPPyyFCxdSAmnVqqU6XUC5ZgGStH7912opY5vKsmXL5PDhw3ofYuVDmyTEKLaTDBw4QNdf0GfGjh0js2d/HNgSY3m1gPtyEIgHAkkiEOoyBMMPL3uvWBjctetH+f77rWr+ZUOjzeps7WBNAkdybF9ngyGiE0TgT4hKWLVY9+D68ssvBcSh/ft/0S3utIXZt2fPnoL5FpHK+kI7/IZw4CSTJk3UPVqsyO/atTPQlBF34Ib74SAQDwSSTCCGZL///ruaVNkkyFHXK64oILlz51Ffu7SJLoDDN1yKskMX3QOHDBAJW1Ew4ZKM06CX3Hnnbaqgc9/aYREyXbo0yqmoA6sUZ9LbtWun+6wQufz5IRJ8c7EDmA2UJAgITuNEKwWH+0oABJJMINRtiMZJPWR9/OPeccft8t57U+Tw4T90AbBdu7a6DWTx4kW6DvHxxx/rivb48W+rKPTpp58IREbauHGjOpNbtWqlKvYQAImzJ4hU27dvU8V70aJFSiDPPfecruSzVeXJJ59Q8Y0t7qThw4cJbn9M3zDjgXEbzeS+HATOAYFkEYghG5aqH374QXbv/kl1CpRwDjchKrEi/uCDreXZZ58RTMJsLsSTCYn/eIHnCqeYMGGCfPTRRxr6gLPu+Nsl4ZCaxUUSohuOHkhcOUrL6ju7feE+bEnBSwqmZLa24KPXuJAWcl8OAomAQLIIhHaowAiFsxa42UG/QLxhLxYbCCdPnih4FSGhl4D4n3zyqSrnHGSyxG8IBJGM3boQjiVENQgLDuTfXk8etqpg7UKEY7dvmjQppXHjBgG9A2OB9dHqc1cHgYRAINkEQiPM0CZuffnlWmncuJE6q/7gg5m6OZE8NGSmYRTmEiWK6+bGb77ZrIjMhkcSSjfHZEF8nFLjFXHbtu9l+fJl0rTpPdKwYQPNR33+lXxiiXAupEyZ0tKlSxfZt89zTOcIQ8HlvpIIgbAQiLXtR0a/WHPq1OnADG73QfYSJa7SxUW2s7PtnYVCDkEROoGt6RzNbd++rXIG3I+ywDhihLeT1+qhTftNP4xQg39bH93VQSAxEAgrgdAwszpIaogbTex1nxh2+rQX+3zKlHfVPIy+wEo56yJ4RXz//emqkBPj4/nn+8rrr7+mohp7rK69tlQgbgh1WqI9FihNlIJg/ERj+dzVQSCxEAg7gVAhCGtEYsThR2j7PX/+PBWLvMNOTdVEzMbDhg0byuOPPy6vvPKy7up98MEHpH//F1XUYoCmz9hg/W3Yb55ZO5bPXR0EEgsBcMgXxDPpMQoT0zCNQkAkrmwZwRsjXlFYeEQJRynftGmz3mf9wpJDeoOEu14ICFwUAmFgNIwYlFCEJ68R1YUAjGvDQcDw9IJzEAM9xAHS2wciQI+wjxEFzxNKSFa3uzoIhAMC4N1FI5BwDMDV4SBwPiHgCOR8QtfV/Z+HgCOQ//wrdAM4nxBwBHI+oevq/s9DINkEQgUJ/fwXoWVjS0zfrUxCromp1+W98BDgHV4wJZ3GsEy5FAsBs+DF3nG/wgEBm5ySW1eSCYSCmGPZfs5ZcfsQH4QzGXblN5+jR2N96LL9xEy31PNvTcQ54ZgwY6PPCUlssPzrryN6Hgbv8h5cgAG/Y+HCM+q3xEZON3kYNJJ+DSaM4P+JrZnyieYghtRsTycOOcE2ifsR/MEfLx/u33zzTbobF0+KhFEjgRBWV2I7fj7zG6LOmvWBFCxYQP162W7jc/UXAiFkQ7FiRTTMgzd+Dw4GC+CB1/tbb62p52XsUJf/XP35HF8k183Ey5EKHHZwSpV3aZNxUsadJAIxBNqxY4cULlxYcufOpcdnCZCDCyCu/t/46eW4LHE8cAvKWRHzyn4uhEvKoJJbxsbHyUj6zRkXzsSTzt3faPU1TCAfomr54WEwyZkzm8ZJoW7gcfnlBfT8C/Vb28kdw/9jeYMdG11Lly4jzZs3TzaeJYlAoEjSzp07pVSpUpI1Wybp9GhH2bLlG1m5coWsWbNaP6tXr9LrihXLZezY0VKt2k0aDiF9+nTSu3dvrcN24NKRUMhnz/1XQwK7x3/7bVebPfgf13PLZ1fyGKDx6ggCM9sTvdfK6494v2L0jD6TAZ7uDQaxMFmtMJo2bapwHJlAp3nz5lFi+vbbLVqrwdf6xJV79vHftz5xz35zZQx2Tx/8AxuDR3xXf938Jl9cyZ5ZPXHlCb5n/bEy1lZc+eyZtUMeu0d5q8PK8gxcIg0dOkQP7VWuXEkOHz6i9wwe5CP567LfdvU/516SRSwjkPQZUqsfXW05xNeePT8pssFxICw7c25bS4xY4qoCgPDc4p0zYAMU9w1gVhf/SQzQny9YjOE596wOysQSyFTlekTESqiIhfiIny8iad11l+cONa7x2D3ilhDwJ1u2zOrxxd8+fUJcCH65p6NP630bF1cbN1cbM1d/4j91UaeN18pxnw+w8MPIyvDMkuXlGR9r35/H8trV6iYvZUh2z/5zz+rjGf20MaKv8dsSv+kn+SjDx3w/c46IoxNVq96kkcQsr+Wzdv1lqZd8Hlxi66RMognEOmoEkiFjWvWxSyP+QZGPTnA9etSL6MT58UyZMkq+fPlk4cKFOl6rzwZPp4JT8D2r258PgPkTcqgBgYH7EzuEjx7F+2Psi/cDkLxwEDhBUgnkzjvvCCCiwcH6zcvkHv0gGhbhG9DTrJ8886fjx09of0+eOHOMlt+f13vJsYhoz4LhHPzfDz9gYfDzl/e/B4Xh37F+z8gXXGfwPZ6jG/jh7i/Db38bwf8pG7y7OzgPrmvTpk0tN91001l1kZePJcZMnf6xW59BQ/oSBgJJIy/066ttxvXCeGAWG1yKIrbkzZtX/ebyDF0Gt0DdunVT5w/WQa3QB3R0grZtH5Lx48fbI3XcgOuf0aNH6T0Q7/XXh0vdunfqDL53r3f0lofr1n2tJxZxdI1DbcIlECi0TZsH5ZNPPg7UacAKB4H4X7Y1wD3gxGRCwsUqHAc3rH/+6cVO5D4Ov4k736xZM6ldu5ZUu+VmubV2LT3S/NprQ9WtK/mIMNyrV0/p1OkR4ZgziTH427YzNBxN7tKls3Tv3l29U27YsEHLvfhiP+ZvParcp09vuf3226R69VukTp06CjPjoNT9+efzpdV9LaVGzepSq1YNufvueirWYJkj2aRE+xgtSJs2bZSnn35Kvd7ccks1qV27tnD254svPKeA5DHcAQYclnv00U6CP2US3v8bNmqgTgVps0GD+uprjYNyJIhm0KDB6rijXr266g8Nd7hPPvmkPPFENxk3bpzmsy/eN++9Tp3aUq3azXoFziNGvBnwsmOTVHgI5IVYAvEA47E9fkdHxwQ4CA4WUGALFiwYcMnz5ZdrNGQaSitnz0nWOf9vHGTjEKJ582Y2TnUTxL2mTRurp8Z69e5U9poqVQrJkye36klk5vAVokyqVJeqk+1MmdMJn7TpUipyetFxn9F6T/wzS0+dmnwOYkhqV+s4yGCE2KrVvdpnCMRcIK1Zs0YqVCivRgLiq2TMmE4yZ04niLNp06XS/HCen3/erVXiGR84IHcz85P8M6UhEo77yFehQgXN88EHH/zzv5x62CdcBc853gz3RFThA3c7cGCf9OzxjKRMeYmkTpNCsmTNIBkyplH4kRd/ZuYOlvdnRDl48ADVsXAvy8wOrHnXqVNfqkYMHJCTDB6//LJXY8zwrpYuXazBlOhTuvSpJHOW9JI+fWptk34RaInExFiyZEntOxEGCOKE37XUqVPqvdq1b9V8GIfuv/9+HRv1MzHRH670h3HccMN18t13sfpgWAiEuB4k/0vRG74v1kLwuwvwcSlqM8aGDeuEADhYfVBqSXERCLEMGVTbtm0CtQ4fPlxSpUqp3kyILwIgCaKD10ZmVWYWPKUQ4QqLEp7kCeNGjBFm03ffnaTcBPepPAcxLYWDgzBGYOIhjCfn89uQAQ6H424sfbffXlubxmFFxYoVVRTFkySRt774Yol8/fVXMm/eZ+rxHgTgpeK/mIR3fMYAZ7YoWgZDI05CVFBfxowZ1DUr5WbMmCE5cmRXczx1MuviQolJizaZlJhY+MBx4f74Rv7oow+1P5wKbd68qb473ivvg2RiEHEj6Sd969ChncybN0eDuuIdk3eBZS9DhgwyaJCF1YuRAwd+0aUBgiDBOUHgzp0flblz5qgU8PHHswUuQfxLxkKMGhIhAQcNGihNmjRWDkK8TJyeezFnPFdTGIfSpk2jnkA56k0QWYLM4iYKv9E4NKQ9wnOQmNzDQCBppW9fzyqFroHoYB8o++DBXwXHcQ0a3K3EATLgIsgSBMLLAYirVsVPII891llSpIjSYDpWFr9YzCSYYkFw3P743YySjxAMKVNeqsqzrcFYea6bNm2QokUL68v3s+LkcpC77qrrb+as3xBCy5YtFbnQy954w0Ou0aNHS5o0vMQrZM0aDx7BhZkAGHedOsyMMer9BeQH2bp29fwkG4HYlRgswL5o0SJiHvFxwQTcgH25cmXUfWxwW4yD5xAHk1BwYlH4uusqaX+IU2mJSQgkpn4U57gSYle2bFl1ucD6RERk1ozgANmzZ1MLaHBZHBMSCBbiw6ezP+HfgFAccD3/+wYnb721lqRLRxkvqJO/HL9xIAKny5o1i+Bxh5QsAilevLgOBAQlaCezjP/DPZRcZiAAxX9zN+rnIMkhEFgqYRXwDG+Jupk5EVmIU0g/Z82apY9Z/YdwmeUMedBJYP9vvfWWVZFkJR0fXSAT4yYGCkGB7GMxUdq0eUCfM4NmyZJFvVLigI/02muvyVVXXSWtWrVS7mOKKS+Y3yQUUbgp/WY8JOKiMDtilv79d68uYGBcHQ6MuEbblhCxgB39wJEGiXYoE8sFBivhFS9+lToGJA8ckDzkJXXq1FGREn8CxrG6dXtc+0jULxKzMeV4N8CffIiDSBXAHkeDpL17f1YOkjlzZmnatOk/ZWMNPtavbt0ek5SpEK+baB7qJA0bNvQfJb2Kiny0S1+RYKpVq6qTtF8KAQeAK/l++eUXIawfrqO++eYbrS9ZBFKsWDHBLy/Ij1zJrBb8Qa5j5rr88vzqwPrQIe/lmayfXA7iKf25NWIVIzLxBaDwMvDTi2xsBKmj/ueLl4QoRdRdWGs4CAT2DzyYAeF49mFm4nPJJVF6ZfYDMevWrSvmQM9eFvFMTJfw95ffeLEkRgr95YVbvvXr12tsRmBN+DuSwYJ1HGZlysye/VGgSiYNLGjoHnjaJxmCG7xGjhwprF1VqXKDbqFhVrY8NsFA+BAsBEIC3oStAFdHZvMAABsZSURBVPGJLxkqEf4bwm3YsL5mQweBm9EmkwXJxsFv69czz3SXqEuipHHjxmfkIf4l7WLFsgVp04fuv/8+JRDENyaMjRvXB6IEaCVBX+BQsggExQgERVlasmSRcgfcf/IhxBpXZH6cSOMBHjkVwOFs2oCccAJ5NE4RC0CyfQPWTGImIFG/AZP/zBJ4fZ82bZoq923atJHrrqusSIP+AycCGSwlVQeBg4B0cFVEEv8HV6zMtkTvBamQgQ0OIAEvxJCOfuCXmNgmEC5WPrhhnjx5tH4IEDHDzwnZ5gIREkeFZIg1Z86nkjlzBoU9zvisTQiE98d2Ibzzk+yZwW7EiBEqllSpcr3uKYuPQDwk9xz7MfsiIl52WW4lYtaGWBeK/dSVevXqqfh7/fXX6USBmEZIDHQl3if6Ba5pSdYX/288aV6SIkoaNfL0BRurEQjrIEYgVn7Lls1KfOAhE3n+/Pnkxhtv1CjNxJXBcaHVY2WSRSAs+GXIkEZeeaW/DiTUF06mPZEis7BAZimhBAKRXXpplOAGyBIzDGIFsxsbAkn2gkE2EjPskCGD1YzKDMqLTJs2rYo211xzjcqjiCXM6G+9lXwCiV0oDK2DaOf++bK+2kxH1F8URYiAmTl1aixXGTRiVosWzVUxNg6CmGNjhqi5D3Fi/rX08MPt1IBBJGES6yokIxAUWrOIWV2GIBBnunQeB0HfIFkeI2aI3U8ga9asVeRDdIYAmdGRMOzDO+M39xGlsmbNKgUKFFDx6o8/Dim3Qy87F4GkuBQOcm4Cob8G2z179giOzwkXiFEDQoHL0x8mSvQ64E9KNgdRAsmY5oyFQoDm/xigGXjFiuWUixBX3dKZBLJSbxvg+WO/YYmIJ34Cwd0ogULRe06c8ORze3keUE6rWY88iB7sA8O5Nu6FmOX+/vsviY4+pbMcL2vUKG89hXaTykGMQLyFwtgVf4Dt/xiMDA5GJETTQi/ghWFyRMFdsOBzYc0C90gkLE2YML1xx+4KBoEpQ1lbG0Kuvvbaa1QPJIQdyXSHhBNIWp2EzkUgJu5s3bpVChUqqKImlqRFixacIV34pQz8LWNpJALYiRMYdQ78w0FiCcRwgL4bPsFBPAKJW8TycxDDCeMO1AN3ITIB+IAFC27MBA73z5EjW2BtLPkcJOO5Fwq97eLRaskCEQ2QdHT9+tBWLEOce+9toUjhJxCPg5xNIAbQuXPnKqcgFALm0rgSnAeLx/kgEL+4F1fbds9eIItkhNCGCzRq1EBFDsvjv0I09Bejh710W50mghczIpyGhEjJBEFcFhLvwpAs3ATSqJHXxu+//yEVK1ZQQgUBE5OI54IOkjFj8gjEr4MYfK0fNn77zxXiJA5m8eLFVNxmAZR0QQjEEJbVXtgrK7TG5lGU0E+gXjY2knjpDMpePkomYgCIY/I1+fwEcvx4LAex9oYNG6qLP1dfXUr1Hspg7aBeswghWmD/x5jgF7GSa+aFgwS/GB1cHF82CWByLly4oIoltiqOlYqFPvpsFhz0GLgEBHLsmDdugxWx4BFXChS4XHbu3KEr9SlSXBLYgQByGIKEm0DuuadxQAdErIPLNW/uWZmAN/2nn+ysMP1gwIBXlWMQ44VkSnpSCUSlirQp5aaqnhXL4LJ+/de6as4uAbZJkeiTwdVwhp0NTD41atTQ7T0XlECef/55lf85R2LWF5RDEBRZ9dVXX9GOByNWz549JHv2LMr6WreOtbVDINi8PVHDM/NR1gY7ZMhARfyrrioqO3d6oRaC637iicdVFEAEYw3CEttiIJrk7MUKbsvqDr4agWzevDFAIGPGeH0xZLYyBCJFtmdCYdyUpR0/4t9zTxMlIMJssz7CrMi6CwnYGHzOB4HYmD/80LOQYeWMj4tghGDiY4GXfXokzLzJ4yDDdccBeqn5gqZerHRMxCwsE74vvoQYDoGwXQnYJppADABQIUouy/8vvuitpAe/TOuEvZCBAweqUob1C2XJEgopBAIiE7750KFDat//+uuv5ZFHHpGcOXPoi0Y29HMQVm5RrlkPgEWS6J+19/HHH6lMiYm5RYuWsmHDRjXrsT5CpCoW6iACVvIhEPaE2YzDlvSsWTNJxYrlVS62uq3PcV9j1FxJnSywGazizht71/IdOnRQZ9NcubJL2TJlZNq06bqWw2xL+Or+/fvL5ZezqJpTzeve4t4u7TOwt76zvsECHOZr4EqQVBLPPfh4mzc//PBDHTdKfXxKOnoZFiVk9Ph0EMQ6JqomTTxuYeO5997mimwsxBIOnMVAJsaDBw+qgQAxCCWZbTboqKT9+/fqWk6WLJkDofzsffLccKxHj6clVeooadLkHi1nYyd6WZas6aVEyeIKr8mTJ+sOBDIRJ5P2WGdCUQemwJbPt99+Jz17Pqu4AIEQBJaUaAKx2Y5NhldeeaVSP9s6SNZ5/eP7ss4D7FSpPIsMsrElfPGCxJkyZ5BMmdJL8eJFNdZH9uzZtX4iVEH1zDQmW1N2wIABeg9ToYkavBzbEMw9rByII9SdN28uRUAWDrFkpUiRQvr1e0G8/VDp1YQKayVNmTJFjQLEMtm/P/R5EEMIymGKpZ81a9YMKOX+51p5HF+GBO+8M14j/ILYmbNkkFJXF1erTq5cubTeO++8UzktCATMIBiLumVw/vXXg4pkLNBiCVu27AttkfdDX+w9sZKeMmVKXck2A4DpTZaHiMGMh71hHBsm2Xisz6yIk4c1HZLdZ5MjOxkyZEive7jy588rZcpeq/FhuIduVKZMGd36owVFdMMkHA+DDDHvSdYX/+/HH+96Rps2dmLUsPLP9iLeMf2qVaum1rNnz89Sq1YttQiCh1ixSpe5Rq4tXUpxgx0XWM/AhxMnPJ/QSSYQ9hGx2os+YTtsDTDaG9+X3cdBNQr6HXfcIS+//LLmMIvKihUrpUnTRlKpcjkpWrSgLl7VqFFT99iQkZeJac7KcQ8iq1mzlnTu3CWg0/hfHr+PHPlLnuvbR6rdUkWuuaaEFC58pZQrV05XaVHiSSBY+fLldROlGRAWLlwktWuz27eNHDrkxVG0urVQPF/EOGGvGTFOmExMBIon+xm3DRHgAOwMKF+htBQufIWUKFlMqlevoes3yM3oUY0aNZYiRYroJr3Vq1drPZgyDVH69n1OdQBWqu1lW2P2Pgixzbtgi0jwJGB9QQwDqTp16hQQiw0ONlkSFax69erSq1cvJR6eWz8wHowaNVLqN6grZctdo+Nh/xn6E2HzbMe16VdID8AcvEKcJFl//b9ZswIfaNPuW595r2xK5FQhocr7939J8/AFPrD3i4kGPChYqIAUKVpQKl9XQZo1axo43UlexpFoAqEQHwOOtcy9+BLP/IMkHwDkXvAztk3zstjDZWUM0ax+++9vM7g/5DWAee2d0C3kmD1te4b1gyv3eGYLb3HVR75Qif5Yn+w314TWBUwMsWiHRT2iZbGybvepD7hQJ4fOWLXmt8GS38RmJBoX4eiGDx+qXTZY8oc8VsbGw//gFHyP/zY+yxucx8bLfSY//3N2NXB8mcXAkydjvfbznqxeu/rrD3XP2uPKGP3jtDq40g9/X/gNXOkPIh8mf0vUYXkTTSBUQmf8HbP/1kDwlef+ctYBOmFluWf5/OUNeJbPX8b/O7gs/3lOvX5Csbp5ZnWTJzjx3F9/8PO4/lsfrW3rk13jKuO/Z+XpF20HJ39//XVaXy2aLzuVObnJavb333+n1fjrs3biulqbcT2ze5aHq92zq8HM+sTV+u0vx4r86dOxk6SVj6tOnvkT//3tBJelPXun9syulDOpxV+nteuHPWWSRCDBFYfzvw2EaziTv9646rbn4WwzuXVZn+LqL3Vz3xDR1kFiYk7rgmjq1KmlfXtvQdaQJbn9SW55/3jC/HqT1LUz+3M2vvH8X0cgSRrp/2kh/wt+6imi/LbRbf1Y+3AGYedb/i0E8l97TY5A/mtvLI7+wkFIKLVYbDB7Y8WxnclxizdxVORunQUBRyBngeS/d8O4w4IFC9Q6w+Ipu5ZdSj4EzguB+Nl+8rvoajgXBEwHCc5nnCX4vvufcAiEnUCo0KULCwEIAbgjSmGdwRzMb5eSD4HzQCA4bz6sWzOwLdOAiQDJ766rwUHgwkIgbARCRSQ8m3PklD1C7LdiuwbJFrn0j/tyEPiPQCBsBGJcgmO3HDjBisJeG3O/6eTh/whGuG6eAYGwEAiVGIdgLz07WdlqjBcMzvzaKbaEEgn1mVzNbz7nSpbH8tv1XOXsueWnXWvbnp3ramW5kuz/ucq55/9+CPAuk71QaNyD7eslSxbXQ03Tp0/Vbd+cbGNbMsnyxQcWEBNC42r5zYZPR/lt//11GEJSvz2nDn5zj+fByZ6f2Vasu8742vLXQ73Ub33295F6rV3LF19f/HXaGLi6dPEhwLtLNoGATCTv3EB6PbfBOW882nFGAC8mRGoiGdLoH9+XIarvVoJ/JgSZ/PUH98H6bw0GPw/+Tz5/fVYu+BofQcRVH2Xjux9cr/t/4SDAO0k2gXgOimOEI6ac1rKjkziLxv8Q5xo4fERitqVR/8fCm+ECEifKnBjEwTTOhXEmzJkOfGkNHjxIHRiww5Vksy2/cRczadIEeeyxLupMGfeTTz/dXXBTaQlCMMTGeR0OkpcuXaKP2dzXu3cvdUJG2xwX5Qx7bFuxu02NoDg/zuEc2mTnLA6VOVKM25kff9xhzapjAHwD4xaTI7CkYGIwImebOyfrcOIWnCdQoftxwSDAO0gWgdiLXbFimbpMyZ07t57UYwSco8apMqezOIBCslmVhjmYY0jw8sv9tTwcB79O6DG4u2HrBOcicITGiT+8ffzwwzatyzzp4UcWB2q0Q37Kpk2bSg/cUIYjlOY13XZx4rqTvHA5/MRCxPzntBn10DYOozmzsGeP50kE4rLxrlq1Qjkj/pUox4EsfiNSUh4frxMmeId9OBWJI23ymdsdq8dgwpWTdhzvJR/nJLxnZ+/o1Qfu64JAIGwEgtdwkAp38sywnEcg4SITRwtwks2bPV+nhhw2Ew8c+KoiJhvs8ElEHEMcJzPLt2zZXJ/hSIxjmyCef3beuHGj3gNBMQyMHTtKFi9eoE7r2rV7SC67LK8ibMuWLZQYrU2eQRR33HGbnrjjWO348WPVPc28eXP1WC8+kiAYnLyRjLg49GVOjjFE4DITB3CLFy/Ug0GVKpXXs/M4hZ492+NgcEUIiLiEdg7CJgfrE0eAOQHIuWkcDJCM4+kf93XBIZAsArGX9+uv+/V4J8j0wgsv6CAMmbZt+14KFy6kxxgRM0icbjMi4YwyxMNMj+NptmoHJ0QfnAlfcUV+JZIdO7ZrFjgUYh0zNr6oOIQTnHDjgtMAiIETiZbwzQpB0i6eOOwchT3nyvlliBs/UyZqcZ8jpBzLxNcUIeeCE86zOQKMMzQ2EJJw90lbEAA+okgGA7s++iieIy+RZs28c90mempm93VRIJBkAqGgzXzI/rFcYpMOBAKxI5RNmzbTNZEbb7xODh9Gf4g1C3M8ld2nLCya61CzCnElURdeUPB3y8xtIhYcBnehEBjuckiIXZyLgINZ0B4cznH2mSOW1mfjIHCA7ds9gvNOEsYepsG1P2s6tAmhk3A4R3QsHE7jbp9E/0ByPGgcO+adksNgwXkMzjzjGIDnEBrEbOKTjZM6cBpw001V1IOhHV+2vmoj7uuiQCDJBOKXx1GIefHNmnneJYJHgucMxA1mT/z1knj51MF5aPQOE2OCkcKIBOUdDsVZZiMQE+toP1RC9IED4ajBiAFuhUiIczYSCEx/AIjN3MQqgcsg8uCOh9Sv34uSPn16KV26tB7P5R5lLNF/6uIY7FdffaUfttyQUL7Tp0+joQIsUI5xWs5944KTM9KcySZRj0sXFwJJIhAK2csDCcy7O0iO8wP8IUEUfHAnyWxarNhVKuagMFvi/HfZsmUlfYa08uqrnvjlJxDaMQQiZBZikqeDeF7I0R+4hxkZjoA7ILwuYv3ig0NtRKl7mjRSVy7M/HAAEgSCQm1xIvwEYmNbtWqlGgWIlW4RaNu3f1gd38GN/GVsTBAZH38yAqIO3AvB9Uw3MUMD7vZRzjt37qxFGbeV89flfl9YCPAOkmTFspkd30KIIQUK5NcryvKZn9Q687P1BKUXBN++3RNXmM2Z1XFtg9cLkiEnv+mctUNkJWR4FPXduz2veIQgy5M3h+TM5bkGAsFwh4/Hb//n0pRR6t8qKuqSwN4wCAdrmRGIH6ntt3EQRDgLydWqVXNJlTpFIG6Fv7/WZ8pD6IhsfBiD5WvdurW62cFDiOUnohIiJtzKPEtS3hGIguiifiWJQOzFIUYQ6w4Pf3hHx6SLFSr4w31834JozPhYrUjEubj66qslY6a0gXvBHMT+w5WMg9haAhyEsoQbwPJFoEfWJYhH4f+8/fY4GTt2jIY2wKkyCcI4N4HAQbJpv42DtL7/XkmT9tKAb2EjJq30H6IOvscz08fgqohSOP0295eYmREzcc+D3gR8jaCsXne9OBBIEoHYy5s5c6Z6zmDms4AtrKCjhMd+PHGD6D4QCUgOIoBEppgSmJLwaiSrm990zjgIlizWN9BBzIqFf1q8eyNeJTZhoUoMgWzZ4kUb6vJYJ0mXPrX6Y8IaRx/5WDLiQO+YMGGC4C+KiYDEMyaVKlWqqNHCdjqzf43QASNGvKH5CCzkr9PqdtcLDwHeQ6JFLAvtS/BGL/JQlUCUHkMQ/1AM6YkhAYHgTMAcguH6E+WbNQy2ypPgGpTxrFBejHWCqwRbsd5++231kIfbTDyC40LGnBFDWObnaPXqlWrKJVy0OSlLKAeB+OF8Fq8Ot6h4NCT2Hms1JLgDgGTsTAQkuAK7CnLmzCmsm5BM38DxHfoP0Y4QryB6xM/t2z3uFhcMtQL3dcEhkGgCsZf33XffqD7BrE5cbVJ8iqU5EGbFG10FBOvYsaOWmTp1quoWIL9Fyg2GAvH9UGwpi69Zs2L9+ONOKVGihOo+vXr1CC4W+E9MPvSTatXw3+vF0kgoBzECMQ5C3G7EI/QuL5xALPewBvEyT4g0/NlajD0I3sRFFkxxB4reQdBIYGhxA82CZnW568WFQIBACn7WQqKmV5B3dnmRdU7EnFBBKbh7xg369++nSIsJ1FzLmDgUXIb/NCSCWfc2Nfni9NqcV7Mwhj9eCAB3nVjGvv9+m4ZpRvQCgYivR1gArECmg1AvLiThQMzo3bp11dV6gmHiMQ+HaayB4OiZaKnz588PdA2xBjNvhw5ehFQjfDLYb5R09Cva3br120BZfATTJwwPhDwjsA1mW9rFLyyr/5TD4bZxSps8DH5sdYHo2f0MVyWMM8miIAUacz8uKgSUQHb9vU/yzK4rUe8Vl9E/eFsjjkefFImJNVeS0V4u7iMrVaqkjp9xEU/iuUcEcY/HiAePG4ThTZMmjQwZMkQz41C4fn1CRGeUNGlTSs5c2eTKgvkle45sOvPj85VYGRAHH7NiWXuEPUbxJe4I50/YNlKpUkWNj0E7rGjjVZ5ks/gDD3hc5YEHvED0RhTksXHiUBsREg+FLPaRLB9mWTghocngBoQYwFBBoB7use7DWEm0aeWsbuI2wp1YG2IRFHerJBNf9Y/7uugQAMei9h39Qx7+aqDcuPBR+Xyf5y7mRPTpswjEkAvEwQN61apVVRFlFIYA8Y3Inu/Y8aN6AKcsiA3hgDRs1EOhbdjwbilb9lopVaqYEEKrT58+8uefh5WbYOZl5RtftcFtvv/++xoUEjMwMzsiG/HAcUTtj8lu/WBLDIty/fr1O6suy4PugHNkvLX/+KMX4NIQnEKIhwSiLFKksHIM2iXqLyEA5s3zuBV18TFitiu7jzFTYxJnjCSbRPSP+/pXQEAJJMbvAANlE25AbGmfdYbekpmX7UeShI6CssHl4kMIXOYjfplplDYmTpygyEQciaNH/9ZmqTO4XixcbPRbt+6rMzY10jZ5SXa13/7/muGfr/juAwObLJjx0YnYqs/HCIkqGJ+fOLhnoQW2bdsaUM7Z7UuyOvWP+/pXQAAciIqRUxIdEy2nYthuAdKBRZ6h1t9LP8Lw4u3jzxPqN+WtjCEDwRtZnR46FHEr1qxLPWxGNGLgrAWRXjt29HzNUo8l6vUTgN3nSj7aIk9w/3nuv+cv5/8dXNbKWb3+vPymTZsM/GXJb5YsdDgsWcFbXYLrcv8vLgR4f1EXugs0atxj3Lhxqmcgntg+reD+jB79lppB0SVYeyEZAgbnhcCNCP1EFJwvnP/97TG2uJK/L3v37lGdBePCxInemZH4xhNXXe7ehYPARSEQhgfC0DgzKivtGTKkVWtRjx7PamiuxYsXy0cfzRJio6MEs9JMQBQre+FAlLyWjGCI44GFjohYRJ5i0yILp7ZuYvmS15orHW4IXDQCoWGbNX/6abew6Ii1iPMQhASz8Gj8xzLFsVYL+mnlwg2M81GfcQ7C1WHdYj2Grfds3ly+3AuL9l8az/mA0b+5zotGIAYUQyD+E9Sdnb/du3cXDg9h3Zk0aVLgJCJ5/Pmtjn/z1TgDK/xE0MV6xhht273pYv/mMfw/9+2iEwjAB0nONYvy3JAtUl5YJI4pUt6NjeNfQSBwBZCFjxGL/UaZjwREAtCMhQ+r6owz0gjekCqSrv8KAokkgLqxRBYEHIFE1vt0owkzBByBhBmgrrrIgoAjkMh6n240YYaAI5AwA9RVF1kQcAQSWe/TjSbMEHAEEmaAuuoiCwKOQCLrfbrRhBkCjkDCDFBXXWRBwBFIZL1PN5owQ8ARSJgB6qqLLAg4Aoms9+lGE2YIOAIJM0BddZEFAUcgkfU+3WjCDAFHIGEGqKsusiDgCCSy3qcbTZgh4AgkzAB11UUWBByBRNb7dKMJMwQcgYQZoK66yIKAI5DIep9uNGGGgCOQMAPUVRdZEHAEElnv040mzBBwBBJmgLrqIgsCjkAi63260YQZAo5AwgxQV11kQcARSGS9TzeaMEPAEUiYAeqqiywIOAKJrPfpRhNmCDgCCTNAXXWRBQFHIJH1Pt1owgwBRyBhBqirLrIg4Agkst6nG02YIeAIJMwAddVFFgQcgUTW+3SjCTMEHIGEGaCuusiCgCOQyHqfbjRhhoAjkDAD1FUXWRBwBBJZ79ONJswQcAQSZoC66iILAo5AIut9utGEGQKOQMIMUFdd5EEgKvKG5EbkIJB8CMA9oqOjJYof7uNg4HDgTByAOE6fPi3/A6h1i0iY96azAAAAAElFTkSuQmCC;" vertex="1" parent="1">
          <mxGeometry x="-1591" y="1370" width="50" height="50" as="geometry" />
        </mxCell>
        <mxCell id="Prj4pvKru22-2I4ndVTB-28" value="SITI Agri" style="rounded=1;whiteSpace=wrap;html=1;verticalAlign=top;arcSize=26;" vertex="1" parent="1">
          <mxGeometry x="-1636" y="1467.6" width="140" height="70" as="geometry" />
        </mxCell>
        <mxCell id="Prj4pvKru22-2I4ndVTB-29" value="" style="shape=image;verticalLabelPosition=bottom;labelBackgroundColor=#ffffff;verticalAlign=top;aspect=fixed;imageAspect=0;image=https://www.abacogroup.eu/includes/img/abaco-group.png;" vertex="1" parent="1">
          <mxGeometry x="-1581" y="1497.6" width="30" height="32.55" as="geometry" />
        </mxCell>
        <mxCell id="Prj4pvKru22-2I4ndVTB-32" style="edgeStyle=orthogonalEdgeStyle;rounded=0;orthogonalLoop=1;jettySize=auto;html=1;entryX=1;entryY=0.5;entryDx=0;entryDy=0;" edge="1" parent="1" source="Prj4pvKru22-2I4ndVTB-30" target="Prj4pvKru22-2I4ndVTB-19">
          <mxGeometry relative="1" as="geometry" />
        </mxCell>
        <mxCell id="Prj4pvKru22-2I4ndVTB-30" value="FFC Platform" style="rounded=1;whiteSpace=wrap;html=1;verticalAlign=top;" vertex="1" parent="1">
          <mxGeometry x="-1230" y="1415" width="120" height="60" as="geometry" />
        </mxCell>
        <mxCell id="Prj4pvKru22-2I4ndVTB-31" value="" style="aspect=fixed;html=1;points=[];align=center;image;fontSize=12;image=img/lib/azure2/compute/Kubernetes_Services.svg;" vertex="1" parent="1">
          <mxGeometry x="-1185" y="1441.13" width="30" height="26.47" as="geometry" />
        </mxCell>
        <mxCell id="Prj4pvKru22-2I4ndVTB-51" style="edgeStyle=orthogonalEdgeStyle;rounded=0;orthogonalLoop=1;jettySize=auto;html=1;" edge="1" parent="1" source="Prj4pvKru22-2I4ndVTB-46" target="Prj4pvKru22-2I4ndVTB-48">
          <mxGeometry relative="1" as="geometry" />
        </mxCell>
        <mxCell id="Prj4pvKru22-2I4ndVTB-54" style="edgeStyle=orthogonalEdgeStyle;rounded=0;orthogonalLoop=1;jettySize=auto;html=1;entryX=0.5;entryY=0;entryDx=0;entryDy=0;" edge="1" parent="1" source="Prj4pvKru22-2I4ndVTB-46" target="Prj4pvKru22-2I4ndVTB-52">
          <mxGeometry relative="1" as="geometry" />
        </mxCell>
        <mxCell id="Prj4pvKru22-2I4ndVTB-46" value="FFC Platform" style="rounded=1;whiteSpace=wrap;html=1;verticalAlign=top;" vertex="1" parent="1">
          <mxGeometry x="-1060" y="1695" width="120" height="60" as="geometry" />
        </mxCell>
        <mxCell id="Prj4pvKru22-2I4ndVTB-47" value="" style="aspect=fixed;html=1;points=[];align=center;image;fontSize=12;image=img/lib/azure2/compute/Kubernetes_Services.svg;" vertex="1" parent="1">
          <mxGeometry x="-1015" y="1721.13" width="30" height="26.47" as="geometry" />
        </mxCell>
        <mxCell id="Prj4pvKru22-2I4ndVTB-62" style="edgeStyle=orthogonalEdgeStyle;rounded=0;orthogonalLoop=1;jettySize=auto;html=1;entryX=1;entryY=0.5;entryDx=0;entryDy=0;fontSize=10;" edge="1" parent="1" source="Prj4pvKru22-2I4ndVTB-48" target="Prj4pvKru22-2I4ndVTB-59">
          <mxGeometry relative="1" as="geometry" />
        </mxCell>
        <mxCell id="Prj4pvKru22-2I4ndVTB-63" style="edgeStyle=orthogonalEdgeStyle;rounded=0;orthogonalLoop=1;jettySize=auto;html=1;entryX=1;entryY=0.5;entryDx=0;entryDy=0;fontSize=10;" edge="1" parent="1" source="Prj4pvKru22-2I4ndVTB-48" target="Prj4pvKru22-2I4ndVTB-56">
          <mxGeometry relative="1" as="geometry" />
        </mxCell>
        <mxCell id="Prj4pvKru22-2I4ndVTB-67" style="edgeStyle=orthogonalEdgeStyle;rounded=0;orthogonalLoop=1;jettySize=auto;html=1;fontSize=10;" edge="1" parent="1" source="Prj4pvKru22-2I4ndVTB-48" target="Prj4pvKru22-2I4ndVTB-65">
          <mxGeometry relative="1" as="geometry" />
        </mxCell>
        <mxCell id="Prj4pvKru22-2I4ndVTB-48" value="Defra.Identity" style="rounded=1;whiteSpace=wrap;html=1;verticalAlign=top;" vertex="1" parent="1">
          <mxGeometry x="-1220" y="1695" width="120" height="60" as="geometry" />
        </mxCell>
        <mxCell id="Prj4pvKru22-2I4ndVTB-50" value="" style="shape=image;verticalLabelPosition=bottom;labelBackgroundColor=#ffffff;verticalAlign=top;aspect=fixed;imageAspect=0;image=https://upload.wikimedia.org/wikipedia/en/thumb/d/d4/Department_for_Environment%2C_Food_and_Rural_Affairs_logo.svg/250px-Department_for_Environment%2C_Food_and_Rural_Affairs_logo.svg.png;" vertex="1" parent="1">
          <mxGeometry x="-1185" y="1719.37" width="58.14" height="30" as="geometry" />
        </mxCell>
        <mxCell id="Prj4pvKru22-2I4ndVTB-52" value="FFC Customer Plus" style="rounded=1;whiteSpace=wrap;html=1;verticalAlign=top;" vertex="1" parent="1">
          <mxGeometry x="-1060" y="1800" width="120" height="60" as="geometry" />
        </mxCell>
        <mxCell id="Prj4pvKru22-2I4ndVTB-55" value="" style="sketch=0;html=1;dashed=0;whitespace=wrap;fillColor=#2875E2;strokeColor=#ffffff;points=[[0.005,0.63,0],[0.1,0.2,0],[0.9,0.2,0],[0.5,0,0],[0.995,0.63,0],[0.72,0.99,0],[0.5,1,0],[0.28,0.99,0]];shape=mxgraph.kubernetes.icon;prIcon=pod;verticalAlign=top;aspect=fixed;" vertex="1" parent="1">
          <mxGeometry x="-1015" y="1820" width="30" height="28.8" as="geometry" />
        </mxCell>
        <mxCell id="Prj4pvKru22-2I4ndVTB-56" value="Defra.Identity" style="rounded=1;whiteSpace=wrap;html=1;verticalAlign=top;" vertex="1" parent="1">
          <mxGeometry x="-1390" y="1747.6" width="120" height="60" as="geometry" />
        </mxCell>
        <mxCell id="Prj4pvKru22-2I4ndVTB-57" value="" style="shape=image;verticalLabelPosition=bottom;labelBackgroundColor=#ffffff;verticalAlign=top;aspect=fixed;imageAspect=0;image=https://upload.wikimedia.org/wikipedia/en/thumb/d/d4/Department_for_Environment%2C_Food_and_Rural_Affairs_logo.svg/250px-Department_for_Environment%2C_Food_and_Rural_Affairs_logo.svg.png;" vertex="1" parent="1">
          <mxGeometry x="-1355" y="1771.9699999999998" width="58.14" height="30" as="geometry" />
        </mxCell>
        <mxCell id="Prj4pvKru22-2I4ndVTB-59" value="Rural Payments Service" style="rounded=1;whiteSpace=wrap;html=1;verticalAlign=top;fontSize=10;" vertex="1" parent="1">
          <mxGeometry x="-1390" y="1650" width="120" height="60" as="geometry" />
        </mxCell>
        <mxCell id="Prj4pvKru22-2I4ndVTB-61" value="" style="shape=image;verticalLabelPosition=bottom;labelBackgroundColor=#ffffff;verticalAlign=top;aspect=fixed;imageAspect=0;image=data:image/png,iVBORw0KGgoAAAANSUhEUgAAAMgAAADICAYAAACtWK6eAAAgAElEQVR4Ae2dCbhN1RfAXzLPM5EyZarMNEgyRINkyphUIiSS0mBKSYMxKjIlRIiUisiYWWVMiYRCJBVlfm/9v986rfuO673rDRd1/3t/373n3nP2uM5aew1777WixCUHAQeBOCEQExMjUXE+cTcdBBwExBGIQwIHgRAQcAQSAjjukYOAIxCHAw4CISDgCCQEcNwjBwFHIA4HHARCQMARSAjguEcOAo5AHA44CISAgCOQEMBxjxwEHIE4HHAQCAEBRyAhgOMeOQg4AnE44CAQAgKOQEIAxz1yEHAE4nDAQSAEBByBhACOe+Qg4AjE4YCDQAgIOAIJARz3yEHAEYjDAQeBEBBwBBICOO6Rg4AjEIcDDgIhIOAIJARw3CMHAUcgDgccBEJAwBFICOC4Rw4CjkAcDjgIhICAI5AQwHGPHAQcgTgccBAIAQFHICGA4x45CDgCcTjgIBACAo5AQgDHPXIQcATicMBBIAQEHIGEAI575CDgCMThgINACAg4AgkBHPfIQcARiMMBB4EQEHAEEgI47pGDgCMQhwMOAiEg4AgkBHDcIwcBRyAOBxwEQkDAEUgI4LhHDgKOQBwOOAiEgIAjkBDAcY8cBByBOBxwEAgBAUcgIYDjHjkIOAJxOOAgEAICjkBCAMc9chBwBOJwwEEgBAQCBBITIpN75CDw/woBJZCT0afkWPQpORl9WmKiY0TscxGgEh0dLadOnRKufFxyELiYEFACOXH6dKAPcJLomGiPSGIuHl+BSOhcqHSu56HKumcOAgmBgBLI0ZPHZc2hTbLs4Dr57fgRAS2Vk5wDQUM1YMhr11B5/c/+/vtv2bFjh9467SNcfx7/78TW7y/rfjsInAsCSiB7jh2QfLMbS9SU0jJp1+da5mTMyXOVjfM5SB2M2OcSl+iEiVMjRoyQu+++W5YvX6712/3gxv766y85ePCg3vaLZI5ggiHl/icHAkoge48dlCs/ay5R08rL+F1ztb4TMSeUkyS2chAahN25c6f89ttv8t1338nJkyfPIhrqNcKAoMhD+vTTT6Vt27by7bff6n8jOD+hGBHMnDlTvv/+e81Hee7bM73pvhwEkgkB8CkKArlibjMlkHd2faZVJpVAKMzs37hxY3n//ffls88+k2XLPG4QzFni6vt7770ngwcPliVLlpz12JDfrseOHZPevXvLli1bvD6fOBHgRGcVdjccBJIAgSACKSdJJRBD2gULFsiUKVPk3XfflTlzPpVBgwbK7NkfBbrmV75BcAho1KhRMnnyZNm6dauMGvWWtG//sMya9YGsXbtGZsyYIaNHjz5D5KItI7Z9+/ZJixYtZNu2bYE24DZxcZxABvfDQSCBEAgbgRhCzps3TzwuMES6dOksLVs2l8GDB8rHH8+WlStXarcMgYcNGybTp09Xcerzzz8X9I+nnuouL7/cX5544nGZMmWybNiwQdavX69cZdasWVoeIiMZkaxevVqqVq2q4tbmzZsDxGH5GKQRsBZ0Xw4CCYRA2AjEEPDEiRPKEdq3by/t27eT2rVrSblypSVTpgzSpk2bQLdWrFghI0eODPy3H599Nkdef32YbN3q6SB2H27Tv39/+fPPP/WWtXf8+HH9D6FVrlxZypcvLxMnTpSTJ88kIqvHXR0EEgOBsBEIjRoXmTz5XbnhhuvlqquKSO7cOWXo0MFSq1ZNKVKksCxY4FnJ4DKIVyQsUijcpBUrlskLL/SVv/8+Ir/+ekAWLVqo9/kaM2ZMQHmnLeMgMTHRMm7cWClZsoTkypVTrrzyCqlUqWKgrBkAAhW5Hw4CCYRA2AjEiAPxKE2aVNK6dSvp06eXlCxZXLp0eVSKF79KsmXLIl27dtGuIToNHDhQ4Di7du2SevXqqbL99ttj5aabbpRVq1bImDGjpEOHhzX/xo0bZMCAAQInodMmPmEtq1+/njRq1EDq179L8uTJKZdfnk/bqlixgmzfvl3LOyJJIEa4bGdAIOwEsmLFcsmf/zIljHr16sq6dV/JgAGvSNasWaRgwSukUKEr5a23PNEK5fupp55S027Xrl3V6jVu3Bih3Nixo6Vnz2elW7euMn/+Z/LIIx1l7dovtfMmVu3evVsqVKggxYoVlbx5c6sYd8UVl0vdunfIlVcWkCxZMkvdunXlyJEjWo7BuuQgkBgIhI1ATNxZsmSxlClzrRJJvnx5pUkTzL3TpFSpEnqvQIF88txzvbWPcI+HHnpIhgwZInXq1JFWre5V4ihQIL9yoJo1q0uLFs2kV68e0q/fC4Eyxg1YZ3n99dflhhuuk/vvv082blwvEye+I3feebuKdvnyXSY33HCD/PHH71rWEUhiUMPlBQJhJxBme2ZwRCv0j0qVKqg+cd9996rYU6RIIbnvvlayd+9efQNwkRQpouT66yvLXXfdKc2aNZEHH7xfGjduKHfccZtcfXVJyZ07h/zwgycqwT0gRiMSKunb9znZtGmDzJz5vtx44/WSK1cO5SBwFUS7gwf3a1uOQBQM7isREEg2gYCsxj1o99Chg0ogWK/gIIg8KOtcEXtA3ubNm6nuQf5JkybJ4sUL5dixv2XZsqUyffpU5TizZ38omzdvlOjoUzJ58iRZv35dYFiG6KyB7Nnzs4pxjz/+mDz00IOSIUM6bYu20UVKl75Gtm3bqmWtXKAi98NB4BwQSDKBUNCPcCbnnzx5Qvr27aPcgBkcokAnQWyCSEDcokULK2LTN9Y/+vTpLc8//5w8/XR3Xf9o27aNdOrUUa699mr9/+qrL8vBgwdUMWc9BUWd9MYbr6uINXXqe7J06WIlLJR6uFeJEsUkc+aM8swzTynxnT596gxCPgdc3GMHAYVAkgiEQugPpNmzZ0vPnj3kySe7yVNPPSkHDuwXlOdu3bpJ2bJlJF++PEokEAdEAsHkzJld9ZC9e3+W996brAT0wAOtZcaM6fLuuxPVegWRVa1aRebNmysvvviCTJv2nkyaNEHrwGI1Y8b7ShQjR74phQsXVGWeNZTly79QjtO58yNSqFAh+eSTT8541bZIecZN98dBIB4IJIlATKRat26d5MmTWy65JEoRecmSRTJy5AhtilVv1iMQc4w44CT8zp49q7Rr95A8++zTAnfo3LmTEs5rrw2RUaNGSo8ez6i4hD4C4Y0fP06JBeIRiZHbb68jzZs3lblzP5U2bR5QsYo60WOob+XK5fLSSy+qVezXX3+V4cOHy9ChQ2Xt2rWqu/g5XzxwcbcdBBQCySKQV199VWfpPHlyyY4d22XWrJm6D4uaX3zxRcmYMb2adeEcEAdiz2WX5VFkf/PN11WkwqLVsGF9GT36LeUea9askoEDX9XVdPQRCARCYl0ES9iWLZtlw4Z1qnxjMsZ0TP38Rr/hU716NRW3PHGvr8yfP185WlRUlFrM6J8RucMDB4FQEEg0gdiCIJsD2bF7yy236Ir1L7/s060kf/11WEBMkJRVbTgGHwiE9QqIgZVyxDHEJnQGCGHYsKHSoMHdurjIAiOiV//+/TQfegT6yVtvjVALV506t0q5cohveQMEQhuIbxDrbbfVlmPH/pKfftotPXr00PE/8cQTkipVKjUrM2jGwZWPSw4C8UEgUQRiyIRC3qtXL3nnnXcUwTgF2Lp1a9m0aZO2A3JnzZo5gLwgMrM8Zt+yZUvL8OGvKYdg1Z2NjCwOso7Rr9/zqqyjf0AUiFIdO7ZXnQSiYUWetZEPPpghc+Z8opwFC5npNnARFHMWGElHjhzWftJvVusbNGigK/Z2hsS/szg+ALn7/98QSBKB7N+/XxEO0LGPisW+L7/0Vrn3798nlStX1JVtENfEH9Y/ELHSp08r5cuXlc8/n6fWLhRrxKzevXsqYr/yykvKYT788APhN+sncBp0CnSMRYsW6CIi+sjMmdOVgNgImSNHNuUg6Dy09c03m+Tw4T91QyS7hkkQxJw5bIZ8Xf744w+950QtBYP7igcCiSIQ6jAuYr+ffvppWbx4caD6Rx99RGdxLEvoGxUqlJOvv/5S9u3bowt5LAJyH0vUww+3FQiEvVQo1927P6GcBcJAn8Gqxd4sLFXsy6IM+sgjj3SQMmXKyLPPepxi2LDX5JZbblYOhaiFeZn9XGPGjNZNkBzAYrXeEouNcD2Sfzz23F0dBAwCiSYQCtqsO3fuXLUQWWVLly6Va64pFdA7IATEq7vvvku2b/eOxrIYiGKNCXfQoAEqbrHIBxGgmyB2QQDoHBAK6yOIXli6WGlnMRBimjp1qopPcDBLiGso6YUKFdRV+5tvvlk4K0KCi7zxxhv62/QoK+euDgLxQSBZBPLmm28GTvIdOnRI7rvvPqlRo7rO4CjMKOoQA9Ys9mf98cchefPN4aqfIAYhJmHCxbw7deoUVcqxZkEQEArcgjUQCAmRi60ncJXBgwedMR7WR1D2MQubVcszDhQ4Yx0EbscZeZLjHGeA0P2JBwJJIhBDrpdeeklPAXJuo0OHDvLcc31U/gc5WZdAmWYBkIXBzJkzydKlS2T37l3KASAA1jzYyAjio4Rj+sXEC8IjisFJ4Bwo7SjlnCvBAMAKuqXp06cpAWIUgBDRecySxRmR2267TfUk8nMc+IsvvtCijosYBN01FASSTCCIWThlaNKkiWTJkkmGDBmku25BUvQP7n311VoVk1KmTCE9ejwbOMPBzlxODaJ4s88KxGeTI+IU9zD7osvY1hM2Ib7zztsqjqHQz5w5IzCmZ555Rre5Y8FCD2FzI23DSW67rY6ebnzllVfk6NGjqrNwkpHkCCQAQvcjBASSTCB2YImTgSjSItGBbebM4OziZcMhliuUcZLtoYKwQHSIirUORC3qgGMgXvGfM+lwGUy2n3wyW1fM165drXm++sqzmFHnwoULVDnn7DuJncRdu3bWNZWbb66q96pXry633nqrioBOxFKQuK8EQiBJBELdzMBGJPz/7bdfdXMhpwYhkGXLvlALVZo0qaVGjVvkt988J2/kPXHiuNxzTyP59NOPlWsgUrFthAU+RC0sWGxF4SwIJl70kAkTxqsugl4SnDp27CD16t2lt+E+TZrcI6VLXxs4Q4ILIcRBS/6t8nbPXR0E4oJAkgnELFkHDhzQNQe4BEdtq1WrJosXez6tMKXWr19f8ue/XG688Qbdvo4zhoULP1cuwdoH+64gBIgCBZ0TiFi0FiyYLx99NEs5BgSE7sGioVnD2GOFhapPnz5SufJ10rlzZxWjGCTbXHLkyCHlypXT04pm0v3555/lp59+UjgwcJccBM4FgSQTiM3CyPSYVtknhaXp+HFvKzriFByGU399+/aVyy7zVtNR2NFTOPkHN+CAE0TBNhTEJPZcodhj1YIg2D/FOXa4CKIXeg0nBmvUqClly5ZVvcK8MDJYXAuxwk+/MOvmz59fvTyyMIhLIj7maM4RybnQwz1PEoFQyAjkscceUyTG+kQ6deqkzuR+EQxXPTt3/qhWKvZgwQ1iYk7LkSN/KtKzUHjppZeoUs5aB9tJ0E9YOGQNhRV0rF3kh3iaNm0icBBzAUS7tv2eFf2xY8cqUcA5rr/+et2siEtTtr5DIOxCJjlFXcHgvkJAIMkEYiIWjqbROXCu4E9UDAfBemTpzz9/V2sVCjriFK59fvzxB0XoDh3ay8MPPyyFCxdSAmnVqqU6XUC5ZgGStH7912opY5vKsmXL5PDhw3ofYuVDmyTEKLaTDBw4QNdf0GfGjh0js2d/HNgSY3m1gPtyEIgHAkkiEOoyBMMPL3uvWBjctetH+f77rWr+ZUOjzeps7WBNAkdybF9ngyGiE0TgT4hKWLVY9+D68ssvBcSh/ft/0S3utIXZt2fPnoL5FpHK+kI7/IZw4CSTJk3UPVqsyO/atTPQlBF34Ib74SAQDwSSTCCGZL///ruaVNkkyFHXK64oILlz51Ffu7SJLoDDN1yKskMX3QOHDBAJW1Ew4ZKM06CX3Hnnbaqgc9/aYREyXbo0yqmoA6sUZ9LbtWun+6wQufz5IRJ8c7EDmA2UJAgITuNEKwWH+0oABJJMINRtiMZJPWR9/OPeccft8t57U+Tw4T90AbBdu7a6DWTx4kW6DvHxxx/rivb48W+rKPTpp58IREbauHGjOpNbtWqlKvYQAImzJ4hU27dvU8V70aJFSiDPPfecruSzVeXJJ59Q8Y0t7qThw4cJbn9M3zDjgXEbzeS+HATOAYFkEYghG5aqH374QXbv/kl1CpRwDjchKrEi/uCDreXZZ58RTMJsLsSTCYn/eIHnCqeYMGGCfPTRRxr6gLPu+Nsl4ZCaxUUSohuOHkhcOUrL6ju7feE+bEnBSwqmZLa24KPXuJAWcl8OAomAQLIIhHaowAiFsxa42UG/QLxhLxYbCCdPnih4FSGhl4D4n3zyqSrnHGSyxG8IBJGM3boQjiVENQgLDuTfXk8etqpg7UKEY7dvmjQppXHjBgG9A2OB9dHqc1cHgYRAINkEQiPM0CZuffnlWmncuJE6q/7gg5m6OZE8NGSmYRTmEiWK6+bGb77ZrIjMhkcSSjfHZEF8nFLjFXHbtu9l+fJl0rTpPdKwYQPNR33+lXxiiXAupEyZ0tKlSxfZt89zTOcIQ8HlvpIIgbAQiLXtR0a/WHPq1OnADG73QfYSJa7SxUW2s7PtnYVCDkEROoGt6RzNbd++rXIG3I+ywDhihLeT1+qhTftNP4xQg39bH93VQSAxEAgrgdAwszpIaogbTex1nxh2+rQX+3zKlHfVPIy+wEo56yJ4RXz//emqkBPj4/nn+8rrr7+mohp7rK69tlQgbgh1WqI9FihNlIJg/ERj+dzVQSCxEAg7gVAhCGtEYsThR2j7PX/+PBWLvMNOTdVEzMbDhg0byuOPPy6vvPKy7up98MEHpH//F1XUYoCmz9hg/W3Yb55ZO5bPXR0EEgsBcMgXxDPpMQoT0zCNQkAkrmwZwRsjXlFYeEQJRynftGmz3mf9wpJDeoOEu14ICFwUAmFgNIwYlFCEJ68R1YUAjGvDQcDw9IJzEAM9xAHS2wciQI+wjxEFzxNKSFa3uzoIhAMC4N1FI5BwDMDV4SBwPiHgCOR8QtfV/Z+HgCOQ//wrdAM4nxBwBHI+oevq/s9DINkEQgUJ/fwXoWVjS0zfrUxCromp1+W98BDgHV4wJZ3GsEy5FAsBs+DF3nG/wgEBm5ySW1eSCYSCmGPZfs5ZcfsQH4QzGXblN5+jR2N96LL9xEy31PNvTcQ54ZgwY6PPCUlssPzrryN6Hgbv8h5cgAG/Y+HCM+q3xEZON3kYNJJ+DSaM4P+JrZnyieYghtRsTycOOcE2ifsR/MEfLx/u33zzTbobF0+KhFEjgRBWV2I7fj7zG6LOmvWBFCxYQP162W7jc/UXAiFkQ7FiRTTMgzd+Dw4GC+CB1/tbb62p52XsUJf/XP35HF8k183Ey5EKHHZwSpV3aZNxUsadJAIxBNqxY4cULlxYcufOpcdnCZCDCyCu/t/46eW4LHE8cAvKWRHzyn4uhEvKoJJbxsbHyUj6zRkXzsSTzt3faPU1TCAfomr54WEwyZkzm8ZJoW7gcfnlBfT8C/Vb28kdw/9jeYMdG11Lly4jzZs3TzaeJYlAoEjSzp07pVSpUpI1Wybp9GhH2bLlG1m5coWsWbNaP6tXr9LrihXLZezY0VKt2k0aDiF9+nTSu3dvrcN24NKRUMhnz/1XQwK7x3/7bVebPfgf13PLZ1fyGKDx6ggCM9sTvdfK6494v2L0jD6TAZ7uDQaxMFmtMJo2bapwHJlAp3nz5lFi+vbbLVqrwdf6xJV79vHftz5xz35zZQx2Tx/8AxuDR3xXf938Jl9cyZ5ZPXHlCb5n/bEy1lZc+eyZtUMeu0d5q8PK8gxcIg0dOkQP7VWuXEkOHz6i9wwe5CP567LfdvU/516SRSwjkPQZUqsfXW05xNeePT8pssFxICw7c25bS4xY4qoCgPDc4p0zYAMU9w1gVhf/SQzQny9YjOE596wOysQSyFTlekTESqiIhfiIny8iad11l+cONa7x2D3ilhDwJ1u2zOrxxd8+fUJcCH65p6NP630bF1cbN1cbM1d/4j91UaeN18pxnw+w8MPIyvDMkuXlGR9r35/H8trV6iYvZUh2z/5zz+rjGf20MaKv8dsSv+kn+SjDx3w/c46IoxNVq96kkcQsr+Wzdv1lqZd8Hlxi66RMognEOmoEkiFjWvWxSyP+QZGPTnA9etSL6MT58UyZMkq+fPlk4cKFOl6rzwZPp4JT8D2r258PgPkTcqgBgYH7EzuEjx7F+2Psi/cDkLxwEDhBUgnkzjvvCCCiwcH6zcvkHv0gGhbhG9DTrJ8886fjx09of0+eOHOMlt+f13vJsYhoz4LhHPzfDz9gYfDzl/e/B4Xh37F+z8gXXGfwPZ6jG/jh7i/Db38bwf8pG7y7OzgPrmvTpk0tN91001l1kZePJcZMnf6xW59BQ/oSBgJJIy/066ttxvXCeGAWG1yKIrbkzZtX/ebyDF0Gt0DdunVT5w/WQa3QB3R0grZtH5Lx48fbI3XcgOuf0aNH6T0Q7/XXh0vdunfqDL53r3f0lofr1n2tJxZxdI1DbcIlECi0TZsH5ZNPPg7UacAKB4H4X7Y1wD3gxGRCwsUqHAc3rH/+6cVO5D4Ov4k736xZM6ldu5ZUu+VmubV2LT3S/NprQ9WtK/mIMNyrV0/p1OkR4ZgziTH427YzNBxN7tKls3Tv3l29U27YsEHLvfhiP+ZvParcp09vuf3226R69VukTp06CjPjoNT9+efzpdV9LaVGzepSq1YNufvueirWYJkj2aRE+xgtSJs2bZSnn35Kvd7ccks1qV27tnD254svPKeA5DHcAQYclnv00U6CP2US3v8bNmqgTgVps0GD+uprjYNyJIhm0KDB6rijXr266g8Nd7hPPvmkPPFENxk3bpzmsy/eN++9Tp3aUq3azXoFziNGvBnwsmOTVHgI5IVYAvEA47E9fkdHxwQ4CA4WUGALFiwYcMnz5ZdrNGQaSitnz0nWOf9vHGTjEKJ582Y2TnUTxL2mTRurp8Z69e5U9poqVQrJkye36klk5vAVokyqVJeqk+1MmdMJn7TpUipyetFxn9F6T/wzS0+dmnwOYkhqV+s4yGCE2KrVvdpnCMRcIK1Zs0YqVCivRgLiq2TMmE4yZ04niLNp06XS/HCen3/erVXiGR84IHcz85P8M6UhEo77yFehQgXN88EHH/zzv5x62CdcBc853gz3RFThA3c7cGCf9OzxjKRMeYmkTpNCsmTNIBkyplH4kRd/ZuYOlvdnRDl48ADVsXAvy8wOrHnXqVNfqkYMHJCTDB6//LJXY8zwrpYuXazBlOhTuvSpJHOW9JI+fWptk34RaInExFiyZEntOxEGCOKE37XUqVPqvdq1b9V8GIfuv/9+HRv1MzHRH670h3HccMN18t13sfpgWAiEuB4k/0vRG74v1kLwuwvwcSlqM8aGDeuEADhYfVBqSXERCLEMGVTbtm0CtQ4fPlxSpUqp3kyILwIgCaKD10ZmVWYWPKUQ4QqLEp7kCeNGjBFm03ffnaTcBPepPAcxLYWDgzBGYOIhjCfn89uQAQ6H424sfbffXlubxmFFxYoVVRTFkySRt774Yol8/fVXMm/eZ+rxHgTgpeK/mIR3fMYAZ7YoWgZDI05CVFBfxowZ1DUr5WbMmCE5cmRXczx1MuviQolJizaZlJhY+MBx4f74Rv7oow+1P5wKbd68qb473ivvg2RiEHEj6Sd969ChncybN0eDuuIdk3eBZS9DhgwyaJCF1YuRAwd+0aUBgiDBOUHgzp0flblz5qgU8PHHswUuQfxLxkKMGhIhAQcNGihNmjRWDkK8TJyeezFnPFdTGIfSpk2jnkA56k0QWYLM4iYKv9E4NKQ9wnOQmNzDQCBppW9fzyqFroHoYB8o++DBXwXHcQ0a3K3EATLgIsgSBMLLAYirVsVPII891llSpIjSYDpWFr9YzCSYYkFw3P743YySjxAMKVNeqsqzrcFYea6bNm2QokUL68v3s+LkcpC77qrrb+as3xBCy5YtFbnQy954w0Ou0aNHS5o0vMQrZM0aDx7BhZkAGHedOsyMMer9BeQH2bp29fwkG4HYlRgswL5o0SJiHvFxwQTcgH25cmXUfWxwW4yD5xAHk1BwYlH4uusqaX+IU2mJSQgkpn4U57gSYle2bFl1ucD6RERk1ozgANmzZ1MLaHBZHBMSCBbiw6ezP+HfgFAccD3/+wYnb721lqRLRxkvqJO/HL9xIAKny5o1i+Bxh5QsAilevLgOBAQlaCezjP/DPZRcZiAAxX9zN+rnIMkhEFgqYRXwDG+Jupk5EVmIU0g/Z82apY9Z/YdwmeUMedBJYP9vvfWWVZFkJR0fXSAT4yYGCkGB7GMxUdq0eUCfM4NmyZJFvVLigI/02muvyVVXXSWtWrVS7mOKKS+Y3yQUUbgp/WY8JOKiMDtilv79d68uYGBcHQ6MuEbblhCxgB39wJEGiXYoE8sFBivhFS9+lToGJA8ckDzkJXXq1FGREn8CxrG6dXtc+0jULxKzMeV4N8CffIiDSBXAHkeDpL17f1YOkjlzZmnatOk/ZWMNPtavbt0ek5SpEK+baB7qJA0bNvQfJb2Kiny0S1+RYKpVq6qTtF8KAQeAK/l++eUXIawfrqO++eYbrS9ZBFKsWDHBLy/Ij1zJrBb8Qa5j5rr88vzqwPrQIe/lmayfXA7iKf25NWIVIzLxBaDwMvDTi2xsBKmj/ueLl4QoRdRdWGs4CAT2DzyYAeF49mFm4nPJJVF6ZfYDMevWrSvmQM9eFvFMTJfw95ffeLEkRgr95YVbvvXr12tsRmBN+DuSwYJ1HGZlysye/VGgSiYNLGjoHnjaJxmCG7xGjhwprF1VqXKDbqFhVrY8NsFA+BAsBEIC3oStAFdHZvMAABsZSURBVPGJLxkqEf4bwm3YsL5mQweBm9EmkwXJxsFv69czz3SXqEuipHHjxmfkIf4l7WLFsgVp04fuv/8+JRDENyaMjRvXB6IEaCVBX+BQsggExQgERVlasmSRcgfcf/IhxBpXZH6cSOMBHjkVwOFs2oCccAJ5NE4RC0CyfQPWTGImIFG/AZP/zBJ4fZ82bZoq923atJHrrqusSIP+AycCGSwlVQeBg4B0cFVEEv8HV6zMtkTvBamQgQ0OIAEvxJCOfuCXmNgmEC5WPrhhnjx5tH4IEDHDzwnZ5gIREkeFZIg1Z86nkjlzBoU9zvisTQiE98d2Ibzzk+yZwW7EiBEqllSpcr3uKYuPQDwk9xz7MfsiIl52WW4lYtaGWBeK/dSVevXqqfh7/fXX6USBmEZIDHQl3if6Ba5pSdYX/288aV6SIkoaNfL0BRurEQjrIEYgVn7Lls1KfOAhE3n+/Pnkxhtv1CjNxJXBcaHVY2WSRSAs+GXIkEZeeaW/DiTUF06mPZEis7BAZimhBAKRXXpplOAGyBIzDGIFsxsbAkn2gkE2EjPskCGD1YzKDMqLTJs2rYo211xzjcqjiCXM6G+9lXwCiV0oDK2DaOf++bK+2kxH1F8URYiAmTl1aixXGTRiVosWzVUxNg6CmGNjhqi5D3Fi/rX08MPt1IBBJGES6yokIxAUWrOIWV2GIBBnunQeB0HfIFkeI2aI3U8ga9asVeRDdIYAmdGRMOzDO+M39xGlsmbNKgUKFFDx6o8/Dim3Qy87F4GkuBQOcm4Cob8G2z179giOzwkXiFEDQoHL0x8mSvQ64E9KNgdRAsmY5oyFQoDm/xigGXjFiuWUixBX3dKZBLJSbxvg+WO/YYmIJ34Cwd0ogULRe06c8ORze3keUE6rWY88iB7sA8O5Nu6FmOX+/vsviY4+pbMcL2vUKG89hXaTykGMQLyFwtgVf4Dt/xiMDA5GJETTQi/ghWFyRMFdsOBzYc0C90gkLE2YML1xx+4KBoEpQ1lbG0Kuvvbaa1QPJIQdyXSHhBNIWp2EzkUgJu5s3bpVChUqqKImlqRFixacIV34pQz8LWNpJALYiRMYdQ78w0FiCcRwgL4bPsFBPAKJW8TycxDDCeMO1AN3ITIB+IAFC27MBA73z5EjW2BtLPkcJOO5Fwq97eLRaskCEQ2QdHT9+tBWLEOce+9toUjhJxCPg5xNIAbQuXPnKqcgFALm0rgSnAeLx/kgEL+4F1fbds9eIItkhNCGCzRq1EBFDsvjv0I09Bejh710W50mghczIpyGhEjJBEFcFhLvwpAs3ATSqJHXxu+//yEVK1ZQQgUBE5OI54IOkjFj8gjEr4MYfK0fNn77zxXiJA5m8eLFVNxmAZR0QQjEEJbVXtgrK7TG5lGU0E+gXjY2knjpDMpePkomYgCIY/I1+fwEcvx4LAex9oYNG6qLP1dfXUr1Hspg7aBeswghWmD/x5jgF7GSa+aFgwS/GB1cHF82CWByLly4oIoltiqOlYqFPvpsFhz0GLgEBHLsmDdugxWx4BFXChS4XHbu3KEr9SlSXBLYgQByGIKEm0DuuadxQAdErIPLNW/uWZmAN/2nn+ysMP1gwIBXlWMQ44VkSnpSCUSlirQp5aaqnhXL4LJ+/de6as4uAbZJkeiTwdVwhp0NTD41atTQ7T0XlECef/55lf85R2LWF5RDEBRZ9dVXX9GOByNWz549JHv2LMr6WreOtbVDINi8PVHDM/NR1gY7ZMhARfyrrioqO3d6oRaC637iicdVFEAEYw3CEttiIJrk7MUKbsvqDr4agWzevDFAIGPGeH0xZLYyBCJFtmdCYdyUpR0/4t9zTxMlIMJssz7CrMi6CwnYGHzOB4HYmD/80LOQYeWMj4tghGDiY4GXfXokzLzJ4yDDdccBeqn5gqZerHRMxCwsE74vvoQYDoGwXQnYJppADABQIUouy/8vvuitpAe/TOuEvZCBAweqUob1C2XJEgopBAIiE7750KFDat//+uuv5ZFHHpGcOXPoi0Y29HMQVm5RrlkPgEWS6J+19/HHH6lMiYm5RYuWsmHDRjXrsT5CpCoW6iACVvIhEPaE2YzDlvSsWTNJxYrlVS62uq3PcV9j1FxJnSywGazizht71/IdOnRQZ9NcubJL2TJlZNq06bqWw2xL+Or+/fvL5ZezqJpTzeve4t4u7TOwt76zvsECHOZr4EqQVBLPPfh4mzc//PBDHTdKfXxKOnoZFiVk9Ph0EMQ6JqomTTxuYeO5997mimwsxBIOnMVAJsaDBw+qgQAxCCWZbTboqKT9+/fqWk6WLJkDofzsffLccKxHj6clVeooadLkHi1nYyd6WZas6aVEyeIKr8mTJ+sOBDIRJ5P2WGdCUQemwJbPt99+Jz17Pqu4AIEQBJaUaAKx2Y5NhldeeaVSP9s6SNZ5/eP7ss4D7FSpPIsMsrElfPGCxJkyZ5BMmdJL8eJFNdZH9uzZtX4iVEH1zDQmW1N2wIABeg9ToYkavBzbEMw9rByII9SdN28uRUAWDrFkpUiRQvr1e0G8/VDp1YQKayVNmTJFjQLEMtm/P/R5EEMIymGKpZ81a9YMKOX+51p5HF+GBO+8M14j/ILYmbNkkFJXF1erTq5cubTeO++8UzktCATMIBiLumVw/vXXg4pkLNBiCVu27AttkfdDX+w9sZKeMmVKXck2A4DpTZaHiMGMh71hHBsm2Xisz6yIk4c1HZLdZ5MjOxkyZEive7jy588rZcpeq/FhuIduVKZMGd36owVFdMMkHA+DDDHvSdYX/+/HH+96Rps2dmLUsPLP9iLeMf2qVaum1rNnz89Sq1YttQiCh1ixSpe5Rq4tXUpxgx0XWM/AhxMnPJ/QSSYQ9hGx2os+YTtsDTDaG9+X3cdBNQr6HXfcIS+//LLmMIvKihUrpUnTRlKpcjkpWrSgLl7VqFFT99iQkZeJac7KcQ8iq1mzlnTu3CWg0/hfHr+PHPlLnuvbR6rdUkWuuaaEFC58pZQrV05XaVHiSSBY+fLldROlGRAWLlwktWuz27eNHDrkxVG0urVQPF/EOGGvGTFOmExMBIon+xm3DRHgAOwMKF+htBQufIWUKFlMqlevoes3yM3oUY0aNZYiRYroJr3Vq1drPZgyDVH69n1OdQBWqu1lW2P2Pgixzbtgi0jwJGB9QQwDqTp16hQQiw0ONlkSFax69erSq1cvJR6eWz8wHowaNVLqN6grZctdo+Nh/xn6E2HzbMe16VdID8AcvEKcJFl//b9ZswIfaNPuW595r2xK5FQhocr7939J8/AFPrD3i4kGPChYqIAUKVpQKl9XQZo1axo43UlexpFoAqEQHwOOtcy9+BLP/IMkHwDkXvAztk3zstjDZWUM0ax+++9vM7g/5DWAee2d0C3kmD1te4b1gyv3eGYLb3HVR75Qif5Yn+w314TWBUwMsWiHRT2iZbGybvepD7hQJ4fOWLXmt8GS38RmJBoX4eiGDx+qXTZY8oc8VsbGw//gFHyP/zY+yxucx8bLfSY//3N2NXB8mcXAkydjvfbznqxeu/rrD3XP2uPKGP3jtDq40g9/X/gNXOkPIh8mf0vUYXkTTSBUQmf8HbP/1kDwlef+ctYBOmFluWf5/OUNeJbPX8b/O7gs/3lOvX5Csbp5ZnWTJzjx3F9/8PO4/lsfrW3rk13jKuO/Z+XpF20HJ39//XVaXy2aLzuVObnJavb333+n1fjrs3biulqbcT2ze5aHq92zq8HM+sTV+u0vx4r86dOxk6SVj6tOnvkT//3tBJelPXun9syulDOpxV+nteuHPWWSRCDBFYfzvw2EaziTv9646rbn4WwzuXVZn+LqL3Vz3xDR1kFiYk7rgmjq1KmlfXtvQdaQJbn9SW55/3jC/HqT1LUz+3M2vvH8X0cgSRrp/2kh/wt+6imi/LbRbf1Y+3AGYedb/i0E8l97TY5A/mtvLI7+wkFIKLVYbDB7Y8WxnclxizdxVORunQUBRyBngeS/d8O4w4IFC9Q6w+Ipu5ZdSj4EzguB+Nl+8rvoajgXBEwHCc5nnCX4vvufcAiEnUCo0KULCwEIAbgjSmGdwRzMb5eSD4HzQCA4bz6sWzOwLdOAiQDJ766rwUHgwkIgbARCRSQ8m3PklD1C7LdiuwbJFrn0j/tyEPiPQCBsBGJcgmO3HDjBisJeG3O/6eTh/whGuG6eAYGwEAiVGIdgLz07WdlqjBcMzvzaKbaEEgn1mVzNbz7nSpbH8tv1XOXsueWnXWvbnp3ramW5kuz/ucq55/9+CPAuk71QaNyD7eslSxbXQ03Tp0/Vbd+cbGNbMsnyxQcWEBNC42r5zYZPR/lt//11GEJSvz2nDn5zj+fByZ6f2Vasu8742vLXQ73Ub33295F6rV3LF19f/HXaGLi6dPEhwLtLNoGATCTv3EB6PbfBOW882nFGAC8mRGoiGdLoH9+XIarvVoJ/JgSZ/PUH98H6bw0GPw/+Tz5/fVYu+BofQcRVH2Xjux9cr/t/4SDAO0k2gXgOimOEI6ac1rKjkziLxv8Q5xo4fERitqVR/8fCm+ECEifKnBjEwTTOhXEmzJkOfGkNHjxIHRiww5Vksy2/cRczadIEeeyxLupMGfeTTz/dXXBTaQlCMMTGeR0OkpcuXaKP2dzXu3cvdUJG2xwX5Qx7bFuxu02NoDg/zuEc2mTnLA6VOVKM25kff9xhzapjAHwD4xaTI7CkYGIwImebOyfrcOIWnCdQoftxwSDAO0gWgdiLXbFimbpMyZ07t57UYwSco8apMqezOIBCslmVhjmYY0jw8sv9tTwcB79O6DG4u2HrBOcicITGiT+8ffzwwzatyzzp4UcWB2q0Q37Kpk2bSg/cUIYjlOY13XZx4rqTvHA5/MRCxPzntBn10DYOozmzsGeP50kE4rLxrlq1Qjkj/pUox4EsfiNSUh4frxMmeId9OBWJI23ymdsdq8dgwpWTdhzvJR/nJLxnZ+/o1Qfu64JAIGwEgtdwkAp38sywnEcg4SITRwtwks2bPV+nhhw2Ew8c+KoiJhvs8ElEHEMcJzPLt2zZXJ/hSIxjmyCef3beuHGj3gNBMQyMHTtKFi9eoE7r2rV7SC67LK8ibMuWLZQYrU2eQRR33HGbnrjjWO348WPVPc28eXP1WC8+kiAYnLyRjLg49GVOjjFE4DITB3CLFy/Ug0GVKpXXs/M4hZ492+NgcEUIiLiEdg7CJgfrE0eAOQHIuWkcDJCM4+kf93XBIZAsArGX9+uv+/V4J8j0wgsv6CAMmbZt+14KFy6kxxgRM0icbjMi4YwyxMNMj+NptmoHJ0QfnAlfcUV+JZIdO7ZrFjgUYh0zNr6oOIQTnHDjgtMAiIETiZbwzQpB0i6eOOwchT3nyvlliBs/UyZqcZ8jpBzLxNcUIeeCE86zOQKMMzQ2EJJw90lbEAA+okgGA7s++iieIy+RZs28c90mempm93VRIJBkAqGgzXzI/rFcYpMOBAKxI5RNmzbTNZEbb7xODh9Gf4g1C3M8ld2nLCya61CzCnElURdeUPB3y8xtIhYcBnehEBjuckiIXZyLgINZ0B4cznH2mSOW1mfjIHCA7ds9gvNOEsYepsG1P2s6tAmhk3A4R3QsHE7jbp9E/0ByPGgcO+adksNgwXkMzjzjGIDnEBrEbOKTjZM6cBpw001V1IOhHV+2vmoj7uuiQCDJBOKXx1GIefHNmnneJYJHgucMxA1mT/z1knj51MF5aPQOE2OCkcKIBOUdDsVZZiMQE+toP1RC9IED4ajBiAFuhUiIczYSCEx/AIjN3MQqgcsg8uCOh9Sv34uSPn16KV26tB7P5R5lLNF/6uIY7FdffaUfttyQUL7Tp0+joQIsUI5xWs5944KTM9KcySZRj0sXFwJJIhAK2csDCcy7O0iO8wP8IUEUfHAnyWxarNhVKuagMFvi/HfZsmUlfYa08uqrnvjlJxDaMQQiZBZikqeDeF7I0R+4hxkZjoA7ILwuYv3ig0NtRKl7mjRSVy7M/HAAEgSCQm1xIvwEYmNbtWqlGgWIlW4RaNu3f1gd38GN/GVsTBAZH38yAqIO3AvB9Uw3MUMD7vZRzjt37qxFGbeV89flfl9YCPAOkmTFspkd30KIIQUK5NcryvKZn9Q687P1BKUXBN++3RNXmM2Z1XFtg9cLkiEnv+mctUNkJWR4FPXduz2veIQgy5M3h+TM5bkGAsFwh4/Hb//n0pRR6t8qKuqSwN4wCAdrmRGIH6ntt3EQRDgLydWqVXNJlTpFIG6Fv7/WZ8pD6IhsfBiD5WvdurW62cFDiOUnohIiJtzKPEtS3hGIguiifiWJQOzFIUYQ6w4Pf3hHx6SLFSr4w31834JozPhYrUjEubj66qslY6a0gXvBHMT+w5WMg9haAhyEsoQbwPJFoEfWJYhH4f+8/fY4GTt2jIY2wKkyCcI4N4HAQbJpv42DtL7/XkmT9tKAb2EjJq30H6IOvscz08fgqohSOP0295eYmREzcc+D3gR8jaCsXne9OBBIEoHYy5s5c6Z6zmDms4AtrKCjhMd+PHGD6D4QCUgOIoBEppgSmJLwaiSrm990zjgIlizWN9BBzIqFf1q8eyNeJTZhoUoMgWzZ4kUb6vJYJ0mXPrX6Y8IaRx/5WDLiQO+YMGGC4C+KiYDEMyaVKlWqqNHCdjqzf43QASNGvKH5CCzkr9PqdtcLDwHeQ6JFLAvtS/BGL/JQlUCUHkMQ/1AM6YkhAYHgTMAcguH6E+WbNQy2ypPgGpTxrFBejHWCqwRbsd5++231kIfbTDyC40LGnBFDWObnaPXqlWrKJVy0OSlLKAeB+OF8Fq8Ot6h4NCT2Hms1JLgDgGTsTAQkuAK7CnLmzCmsm5BM38DxHfoP0Y4QryB6xM/t2z3uFhcMtQL3dcEhkGgCsZf33XffqD7BrE5cbVJ8iqU5EGbFG10FBOvYsaOWmTp1quoWIL9Fyg2GAvH9UGwpi69Zs2L9+ONOKVGihOo+vXr1CC4W+E9MPvSTatXw3+vF0kgoBzECMQ5C3G7EI/QuL5xALPewBvEyT4g0/NlajD0I3sRFFkxxB4reQdBIYGhxA82CZnW568WFQIBACn7WQqKmV5B3dnmRdU7EnFBBKbh7xg369++nSIsJ1FzLmDgUXIb/NCSCWfc2Nfni9NqcV7Mwhj9eCAB3nVjGvv9+m4ZpRvQCgYivR1gArECmg1AvLiThQMzo3bp11dV6gmHiMQ+HaayB4OiZaKnz588PdA2xBjNvhw5ehFQjfDLYb5R09Cva3br120BZfATTJwwPhDwjsA1mW9rFLyyr/5TD4bZxSps8DH5sdYHo2f0MVyWMM8miIAUacz8uKgSUQHb9vU/yzK4rUe8Vl9E/eFsjjkefFImJNVeS0V4u7iMrVaqkjp9xEU/iuUcEcY/HiAePG4ThTZMmjQwZMkQz41C4fn1CRGeUNGlTSs5c2eTKgvkle45sOvPj85VYGRAHH7NiWXuEPUbxJe4I50/YNlKpUkWNj0E7rGjjVZ5ks/gDD3hc5YEHvED0RhTksXHiUBsREg+FLPaRLB9mWTghocngBoQYwFBBoB7use7DWEm0aeWsbuI2wp1YG2IRFHerJBNf9Y/7uugQAMei9h39Qx7+aqDcuPBR+Xyf5y7mRPTpswjEkAvEwQN61apVVRFlFIYA8Y3Inu/Y8aN6AKcsiA3hgDRs1EOhbdjwbilb9lopVaqYEEKrT58+8uefh5WbYOZl5RtftcFtvv/++xoUEjMwMzsiG/HAcUTtj8lu/WBLDIty/fr1O6suy4PugHNkvLX/+KMX4NIQnEKIhwSiLFKksHIM2iXqLyEA5s3zuBV18TFitiu7jzFTYxJnjCSbRPSP+/pXQEAJJMbvAANlE25AbGmfdYbekpmX7UeShI6CssHl4kMIXOYjfplplDYmTpygyEQciaNH/9ZmqTO4XixcbPRbt+6rMzY10jZ5SXa13/7/muGfr/juAwObLJjx0YnYqs/HCIkqGJ+fOLhnoQW2bdsaUM7Z7UuyOvWP+/pXQAAciIqRUxIdEy2nYthuAdKBRZ6h1t9LP8Lw4u3jzxPqN+WtjCEDwRtZnR46FHEr1qxLPWxGNGLgrAWRXjt29HzNUo8l6vUTgN3nSj7aIk9w/3nuv+cv5/8dXNbKWb3+vPymTZsM/GXJb5YsdDgsWcFbXYLrcv8vLgR4f1EXugs0atxj3Lhxqmcgntg+reD+jB79lppB0SVYeyEZAgbnhcCNCP1EFJwvnP/97TG2uJK/L3v37lGdBePCxInemZH4xhNXXe7ehYPARSEQhgfC0DgzKivtGTKkVWtRjx7PamiuxYsXy0cfzRJio6MEs9JMQBQre+FAlLyWjGCI44GFjohYRJ5i0yILp7ZuYvmS15orHW4IXDQCoWGbNX/6abew6Ii1iPMQhASz8Gj8xzLFsVYL+mnlwg2M81GfcQ7C1WHdYj2Grfds3ly+3AuL9l8az/mA0b+5zotGIAYUQyD+E9Sdnb/du3cXDg9h3Zk0aVLgJCJ5/Pmtjn/z1TgDK/xE0MV6xhht273pYv/mMfw/9+2iEwjAB0nONYvy3JAtUl5YJI4pUt6NjeNfQSBwBZCFjxGL/UaZjwREAtCMhQ+r6owz0gjekCqSrv8KAokkgLqxRBYEHIFE1vt0owkzBByBhBmgrrrIgoAjkMh6n240YYaAI5AwA9RVF1kQcAQSWe/TjSbMEHAEEmaAuuoiCwKOQCLrfbrRhBkCjkDCDFBXXWRBwBFIZL1PN5owQ8ARSJgB6qqLLAg4Aoms9+lGE2YIOAIJM0BddZEFAUcgkfU+3WjCDAFHIGEGqKsusiDgCCSy3qcbTZgh4AgkzAB11UUWBByBRNb7dKMJMwQcgYQZoK66yIKAI5DIep9uNGGGgCOQMAPUVRdZEHAEElnv040mzBBwBBJmgLrqIgsCjkAi63260YQZAo5AwgxQV11kQcARSGS9TzeaMEPAEUiYAeqqiywIOAKJrPfpRhNmCDgCCTNAXXWRBQFHIJH1Pt1owgwBRyBhBqirLrIg4Agkst6nG02YIeAIJMwAddVFFgQcgUTW+3SjCTMEHIGEGaCuusiCgCOQyHqfbjRhhoAjkDAD1FUXWRBwBBJZ79ONJswQcAQSZoC66iILAo5AIut9utGEGQKOQMIMUFdd5EEgKvKG5EbkIJB8CMA9oqOjJYof7uNg4HDgTByAOE6fPi3/A6h1i0iY96azAAAAAElFTkSuQmCC;" vertex="1" parent="1">
          <mxGeometry x="-1350.32" y="1669.37" width="40.63" height="40.63" as="geometry" />
        </mxCell>
        <mxCell id="Prj4pvKru22-2I4ndVTB-65" value="GOV.UK Verify&lt;br&gt;&lt;br&gt;Government Gateway" style="rounded=1;whiteSpace=wrap;html=1;verticalAlign=top;dashed=1;" vertex="1" parent="1">
          <mxGeometry x="-1219.93" y="1581" width="120" height="60" as="geometry" />
        </mxCell>
      </root>
    </mxGraphModel>
  </diagram>
</mxfile>
